<svg id="Layer_1" data-name="Layer 1" xmlns="http://www.w3.org/2000/svg" viewBox="0 0 1182 811"><defs><style>.cls-1{opacity:0.31;}.cls-2{fill:#c5e1f9;}.cls-3{fill:none;}.cls-4{fill:#00aed6;}.cls-5{fill:#00b7d8;}.cls-6{fill:#fff;}.cls-7{fill:#4b3c51;}.cls-8{fill:#04a2bc;}.cls-9{fill:#3e3244;}.cls-10{fill:#e8a17e;}.cls-11{fill:#d88d6c;}.cls-12{fill:#161119;}.cls-13{fill:#f27b53;opacity:0.45;}.cls-13,.cls-14,.cls-16,.cls-21{isolation:isolate;}.cls-14,.cls-20,.cls-21{fill:#26476d;}.cls-14{opacity:0.07;}.cls-15{fill:#ffce45;}.cls-16,.cls-19{fill:#345d95;}.cls-16{opacity:0.11;}.cls-17{opacity:0.38;}.cls-18{fill:#ffa748;}.cls-21{opacity:0.27;}</style></defs><g class="cls-1"><path class="cls-2" d="M192.24,795.37c-65.1-3-129-30.62-160.27-78.13-28.89-43.93-34.26-112-21.34-160.87,10.86-41,41.87-76.56,77.23-106.64C159.31,389,251.38,344.89,311.76,276.35c33.57-38.09,55.9-82.23,88.17-121.08C462.68,79.72,566.59,26.12,677.08,22.83s223.6,48.3,269.51,131.77c39.49,71.81,29.19,158.84,77.82,226.68,22.35,31.18,55.66,56,80.21,86,43.68,53.42,56.88,123.25,35,185.21s-78.39,114.84-149.9,140.25"/></g><g class="cls-1"><path class="cls-2" d="M908,789.42c45.41-2,90-20.18,111.78-51.49,20.15-28.95,23.9-73.8,14.88-106-7.57-27-29.2-50.46-53.86-70.29-49.84-40-114-69.09-156.16-114.26-23.41-25.1-51.42-83.09-73.92-108.69C706.9,288.88,654.94,256.18,578.29,248c-98.83-10.52-164.44,64.07-196.46,119.09-27.54,47.32-20.36,104.68-54.27,149.39C312,537,288.73,553.35,271.61,573.14c-30.46,35.21-39.67,81.23-24.41,122.07s54.67,75.68,104.54,92.43"/></g><path class="cls-3" d="M221.43,750.77,220,761.86c4.32-.23,7.46-1.75,8.88-3.5a3.35,3.35,0,0,0,.64-3.45C228.61,752.32,225,751.2,221.43,750.77Z"/><path class="cls-4" d="M280.78,731.9c-3.37-9.61-13.36-13.3-22.29-14.66-19.54,30.56-44,36.65-57.32,37.46l3.89,22.89h44l2.36-18.27c11.15-.2,21-4,26.33-10.55A17,17,0,0,0,280.78,731.9Zm-11.46,10c-2.63,3.24-8.47,6.07-16.47,6.5l2.65-20.58c6.54.8,13.32,2.87,15,7.67a6.24,6.24,0,0,1-1.18,6.42Z"/><path class="cls-5" d="M258.49,717.24c-.53-.08-1.07-.18-1.59-.24l2.66-20.65a2,2,0,0,0-1.68-2.28l-.32,0h-64a2.25,2.25,0,0,0-2.27,2.25,2.69,2.69,0,0,0,0,.4l9.85,58C214.54,753.89,239,747.8,258.49,717.24Z"/><path class="cls-6" d="M229.13,685.47c-6.36-3.38-12.43-15.57-14.94-21.2s-3.23-12.39-.45-17.89c2.34-4.66,6.84-7.86,9.64-12.25a19.92,19.92,0,0,0,2.44-15.48c-1.91-7.33-7.92-13.18-9.3-20.63-1.62-8.73,3.46-17.13,5.69-25.73a41.1,41.1,0,0,0-1.15-24.12c6.21,3.68,9.92,10.34,13.34,16.69,3.13,5.8,6.35,12,5.9,18.58-.29,4.13-2,8-3.46,11.88-2.63,7-4.42,14.73-2.55,22,2.83,11,13.65,19.57,13.22,30.9-.25,6.71-4.6,12.67-9.85,16.86-3.41,2.74-7.36,5-9.76,8.68s-2.48,9.39,1.23,11.72"/><path class="cls-7" d="M620.18,353.39c-5.1,11.81-9,23.23-10.89,35s-2.55,23.7-5.47,35.22c-2.58,10.19-6.88,19.85-11.51,29.28a6.52,6.52,0,0,0-.85,2.72c0,1.87,1.62,3.29,3.13,4.4,22.94,16.77,54.75,20.56,81,9.64"/><ellipse class="cls-5" cx="614.07" cy="404.43" rx="22.61" ry="28.11"/><ellipse class="cls-8" cx="624.71" cy="408.42" rx="22.61" ry="28.11"/><path class="cls-9" d="M675.58,469.71l-47.18-99C623.18,388.12,618,405.51,613,423c-1.64,5.81-3.26,11.68-3.8,17.69a50.59,50.59,0,0,0,1.07,15.76c1.15,5,3.15,10,6.67,13.73A23.71,23.71,0,0,0,619,472C637.46,477.6,657.78,477.12,675.58,469.71Z"/><path class="cls-10" d="M665.67,466.31c2.13,12,3.89,25.65-3.56,35.31-1.64,2.11-3.77,4.18-3.89,6.86-.15,3.5,3.2,6.08,6.34,7.65a50,50,0,0,0,39.48,2,6.45,6.45,0,0,0,2.84-1.74c1.6-2,.58-4.87-.41-7.21a87,87,0,0,1,.7-68"/><path class="cls-11" d="M664.6,462.81c2.08,8.44,3.45,16.56,2.53,25.2a1.07,1.07,0,0,0,.15.85c.27.29.75.18,1.13,0a35.55,35.55,0,0,0,8-3.67c4.1-2.8,8.92-7.94,11-12.43a36.74,36.74,0,0,0,3.82-19.11"/><path class="cls-10" d="M636.81,355c-8.56,9.56-10.56,23.18-11.69,36-1,11.27-1.6,22.66,0,33.86s5.53,22.28,12.77,31a47.59,47.59,0,0,0,10.67,9.45,27.08,27.08,0,0,0,9,4c6.11,1.31,12.42-.44,18.36-2.37,13.53-4.39,27.47-10.32,35.83-21.84,10.88-15,18.08-54.5,20.91-72.83"/><path class="cls-11" d="M619.75,366.66a91.86,91.86,0,0,0,44.88,21c9.57,1.57,19.32,1.62,29,1.41A49.86,49.86,0,0,0,704.46,388a20,20,0,0,0,12.22-8.23c2.68-4.23,3-10.11.19-14.27"/><path class="cls-7" d="M729,316.62c-24.14-11.66-59.08-9.25-76.64.8s-24.83,19.05-34,40c-.55,1.25-3.72,8.95-3.24,10.23a3.68,3.68,0,0,0,2.36,2.46c21.69,8.28,40.76,9.77,63.94,10.92,7.73.38,15.56.39,23.07-1.43,10.64,35.62,5.1,61.15-12.61,93.84,11.53,4.86,56.34,7.65,77.67-8.87,5.51-4.26,10.53-9.3,13.87-15.4,8.48-15.48,4.84-34.57.23-51.61-3.43-12.68-7.32-25.35-13.55-36.92-9.57-17.76-22.58-36-41.1-44"/><path class="cls-6" d="M644.48,433.5c1.76,5.44,3.78,10.46,8.59,13.54s11.16,2.7,16.29.3,10-8.44,13.61-12.82c-12.46,1.16-26.17,1.15-38.49-1"/><path class="cls-9" d="M744.54,462.13a10.85,10.85,0,0,1-3.49-4.31c-1.36-3.37-.18-7.17.87-10.65,1.77-5.89,3.13-12,2.92-18.15s-2.14-12.4-6.26-17c-6-6.62-15.34-8.72-24.08-10.47l-5.5-1.1c3.26,25.53-3,47-17,73,11.52,4.86,56.34,7.65,77.67-8.87.78-.6,1.52-1.26,2.28-1.89a33.16,33.16,0,0,1-4,2C760.27,467.68,751,467.23,744.54,462.13Z"/><path class="cls-12" d="M665.92,401.38a10.72,10.72,0,0,0-10.68-.1l-1.15-1.7c.23-.16,5.7-3.79,12.8,0Z"/><polygon class="cls-12" points="709.09 400.8 703.7 400.71 703.7 398.65 708.8 398.65 709.09 400.8"/><polyline class="cls-11" points="658.97 405.09 652.44 425.09 662.72 425.93"/><path class="cls-9" d="M679.36,389.19a10.71,10.71,0,0,1,1.3-.68c.26-.13.53-.25.8-.36l-.3.12c.67-.28,1.36-.53,2.05-.75a23.43,23.43,0,0,1,2.62-.68q.85-.18,1.71-.3h-.33a24.59,24.59,0,0,1,5-.16,11.84,11.84,0,0,1,1.54.16h-.33a25.43,25.43,0,0,1,4.94,1.2c.49.17,1,.36,1.46.57l-.3-.13a29.59,29.59,0,0,1,5.11,2.82,1.25,1.25,0,0,0,1.69-.44,1.29,1.29,0,0,0,.13-1,1.44,1.44,0,0,0-.57-.74,28.84,28.84,0,0,0-8.26-3.95,25.43,25.43,0,0,0-7.41-1,26.06,26.06,0,0,0-10.39,2.29,13.1,13.1,0,0,0-1.67.85h0a1.32,1.32,0,0,0-.57.74,1.26,1.26,0,0,0,.13.95,1.21,1.21,0,0,0,.74.57,1.34,1.34,0,0,0,1-.12Z"/><path class="cls-9" d="M646.09,389.33a14.23,14.23,0,0,0-1.15-.9l-.72-.5.27.18c-.61-.4-1.24-.77-1.88-1.12-.8-.42-1.61-.81-2.45-1.15-.54-.21-1.08-.41-1.63-.59l.31.1a23.83,23.83,0,0,0-4.86-1.06c-.52-.06-1-.1-1.54-.13h.33a24.68,24.68,0,0,0-5.08.28c-.51.08-1,.18-1.53.29l.31-.07c-1.9.42.63,1.71-2.86.8-.33-.09,2.27-3.37,5.32-3.67a25.7,25.7,0,0,1,7.48.35,26.68,26.68,0,0,1,5.85,1.9,26,26,0,0,1,3.94,2.25,12.51,12.51,0,0,1,1.49,1.14h0a1.23,1.23,0,0,1-.7,2.17,1.3,1.3,0,0,1-.92-.3Z"/><path class="cls-9" d="M679.74,402.72a9.31,9.31,0,0,1,9-3.92,12.17,12.17,0,0,1,5.29,2.75c.25.21.6-.14.36-.35-2.49-2.07-5.6-3.55-8.9-2.88a10.46,10.46,0,0,0-5.33,3.09,9.08,9.08,0,0,0-.89,1.06c-.18.26.25.51.43.25Z"/><path class="cls-9" d="M628.53,400.87a9.28,9.28,0,0,1,9-3.91,12.16,12.16,0,0,1,5.29,2.74c.24.21.6-.14.35-.35-2.49-2.07-5.6-3.55-8.9-2.88a10.43,10.43,0,0,0-5.32,3.09,8.27,8.27,0,0,0-.9,1.06c-.18.26.25.51.44.25Z"/><circle class="cls-13" cx="695.72" cy="421.2" r="8.83"/><circle class="cls-13" cx="632.15" cy="417.76" r="7.45"/><path class="cls-12" d="M635.86,420.73a19.53,19.53,0,1,1,19.53-19.53h0A19.55,19.55,0,0,1,635.86,420.73Zm0-36.8a17.28,17.28,0,1,0,17.27,17.29h0a17.3,17.3,0,0,0-17.27-17.28Z"/><path class="cls-12" d="M685,420.73a19.53,19.53,0,1,1,19.52-19.54v0A19.56,19.56,0,0,1,685,420.73Zm0-36.8a17.28,17.28,0,1,0,17.27,17.29h0A17.3,17.3,0,0,0,685,383.93Z"/><ellipse class="cls-12" cx="664.81" cy="458.21" rx="6.8" ry="5.31" transform="translate(-40.92 65.95) rotate(-5.51)"/><path class="cls-12" d="M677.13,459.22a67.1,67.1,0,0,1-9.19.27l.11-2.93c35.4,1.41,62.62-27.19,62.89-27.48l2.14,2C732.82,431.36,709.27,456.12,677.13,459.22Z"/><path class="cls-5" d="M615.86,378.25c2.83-19.84,13.23-41.69,30.26-52.9,15.25-10.05,35.66-10.69,52.47-4.24,14.48,5.55,24.07,17.93,28.8,32.37,4,12.29,4.56,24.92,5.5,37.69.31,4.21,6.91,4.24,6.6,0-.89-12.16-1.39-24.27-4.72-36.08-4.33-15.39-13.2-29.51-27.58-37.24-17.1-9.2-39.77-10.18-57.44-2.07-14.37,6.59-24.87,19.44-31.54,33.48-4,8.52-7.38,17.86-8.71,27.24-.6,4.15,5.76,5.95,6.36,1.75Z"/><ellipse class="cls-5" cx="732.61" cy="412.37" rx="22.61" ry="28.11"/><ellipse class="cls-8" cx="736.17" cy="412.37" rx="21.48" ry="26.71"/><rect class="cls-14" x="773.29" y="194.92" width="137.66" height="92.23" rx="4.76"/><rect class="cls-6" x="770.06" y="191.82" width="137.66" height="92.23" rx="4.76"/><path class="cls-15" d="M848.23,208.71a16.18,16.18,0,0,1,6.62,5.56,13.74,13.74,0,0,1,2.42,7.9,14.09,14.09,0,0,1-1.11,5.77,15.89,15.89,0,0,1-2.7,4.25,43,43,0,0,1-4.21,4A33.12,33.12,0,0,0,844,241.6a9.74,9.74,0,0,0-1.72,5.89v1.14a2.17,2.17,0,0,1-.65,1.56,2.13,2.13,0,0,1-1.56.65h-3a2.24,2.24,0,0,1-2.21-2.21v-1.71a13.65,13.65,0,0,1,1.15-5.77,15.86,15.86,0,0,1,2.74-4.22c1.06-1.15,2.5-2.54,4.3-4.17a34.9,34.9,0,0,0,5.11-5.2,8.67,8.67,0,0,0,1.68-5.36,7.23,7.23,0,0,0-3.27-6.22,13.34,13.34,0,0,0-7.86-2.29,11.91,11.91,0,0,0-7.37,2.21,11.62,11.62,0,0,0-4.09,6.79,2.21,2.21,0,0,1-.77,1.31,2.15,2.15,0,0,1-1.35.49h-3.52a1.9,1.9,0,0,1-1.32-.53,1.45,1.45,0,0,1-.48-1.27,16.84,16.84,0,0,1,8.79-13.59,20.33,20.33,0,0,1,10.11-2.37A21.94,21.94,0,0,1,848.23,208.71Zm-5.77,55.44a2.1,2.1,0,0,1-1.56.66h-4.67A2.25,2.25,0,0,1,834,262.6v-4.67a2.25,2.25,0,0,1,2.21-2.21h4.67a2.25,2.25,0,0,1,2.21,2.21v4.67a2.14,2.14,0,0,1-.63,1.55Z"/><path class="cls-14" d="M617.31,108.72H507.59a14,14,0,0,0-14,14V187a14,14,0,0,0,14,14h77.83l29.48,20.92V201h2.41a14,14,0,0,0,14-14V122.7A14,14,0,0,0,617.31,108.72Z"/><path class="cls-6" d="M614,105.73H504.29a14,14,0,0,0-14,14V184a14,14,0,0,0,14,14h77.83l29.48,20.93V198H614a14,14,0,0,0,14-14V119.7A14,14,0,0,0,614,105.73Z"/><path class="cls-15" d="M613.56,129.54H504.75a1.1,1.1,0,0,0,0,2.2H613.56a1.1,1.1,0,1,0,0-2.2Z"/><path class="cls-15" d="M613.56,143.88H504.75a1.1,1.1,0,0,0,0,2.2H613.56a1.1,1.1,0,1,0,0-2.2Z"/><path class="cls-15" d="M581.06,158.22H504.75a1.1,1.1,0,0,0,0,2.2h76.31a1.1,1.1,0,1,0,0-2.2Z"/><path class="cls-15" d="M581.06,172.56H504.75a1.1,1.1,0,0,0,0,2.2h76.31a1.1,1.1,0,1,0,0-2.2Z"/><path class="cls-14" d="M558.55,223.32H487.27a9.1,9.1,0,0,0-9.08,9.08v41.77a9.08,9.08,0,0,0,9.08,9.07h50.56L557,296.84v-13.6h1.57a9.07,9.07,0,0,0,9.07-9.07h0V232.4a9.09,9.09,0,0,0-9.08-9.08Z"/><path class="cls-6" d="M556.41,221.38H485.13a9.07,9.07,0,0,0-9.08,9.06h0v41.77a9.09,9.09,0,0,0,9.08,9.08h50.55l19.16,13.59V281.3h1.57a9.08,9.08,0,0,0,9.07-9.08V230.45a9.07,9.07,0,0,0-9.07-9.07Z"/><path class="cls-15" d="M556.11,236.85H485.42a.72.72,0,0,0,0,1.43h70.69a.72.72,0,0,0,0-1.43Z"/><path class="cls-15" d="M556.11,246.16H485.42a.72.72,0,0,0,0,1.43h70.69a.72.72,0,0,0,0-1.43Z"/><path class="cls-15" d="M535,255.48H485.42a.72.72,0,0,0,0,1.43H535a.72.72,0,0,0,0-1.43Z"/><path class="cls-15" d="M535,264.8H485.42a.71.71,0,1,0,0,1.42H535a.71.71,0,0,0,0-1.42Z"/><rect class="cls-14" x="294.24" y="326.44" width="137.66" height="92.23" rx="4.76"/><rect class="cls-6" x="290.16" y="322.78" width="137.66" height="92.23" rx="4.76"/><path class="cls-15" d="M346.42,344.56c1,10.44,12.13,8.79,12.13,8.79,6.8,1,5.79,15.9,5.79,15.9s-.73,14.91-7.6,15.11c0,0-10.88-2.94-13.07,7.32s4,15.5,14.07,14.81c0,0,14-1.36,16.05-37,1.15-36.14-11.66-38-11.66-38C352.19,329.63,345.44,334.12,346.42,344.56Z"/><path class="cls-5" d="M790.55,776.79c33-16.15,55.84-46.92,73.46-78.56,32-57.4,51.26-123.82,40.56-188.29-2.1-12.65-6.69-26.79-18.71-32-5.68-2.44-12.28-2.39-18.24-.67-11.76,3.4-20.86,12.9-26.34,23.6s-7.83,22.62-10,34.39C815.75,618.63,804.78,703.49,775,783.1"/><path class="cls-16" d="M784.82,778.14c25.53-11.87,54.77-48.27,69-72.57C879.51,661.48,898.6,615.7,892,565.13c-1.29-9.92-4.45-21.06-13.48-25.37a20.48,20.48,0,0,0-13.88-.93c-9,2.39-16.21,9.6-20.64,17.83s-6.51,17.49-8.46,26.63C821.7,648,811.3,714,786.71,775.5"/><path class="cls-6" d="M874.57,512.7c-2.72,19.95-5.57,39.89-9,59.73-3.42,19.68-7.41,39.28-12.45,58.63a401.12,401.12,0,0,1-17.27,52.55,386,386,0,0,1-24.62,49.08,340.58,340.58,0,0,1-31,44.11q-2.1,2.52-4.26,5c-.31.35.21.86.52.51a332.52,332.52,0,0,0,31.65-43.16,375.39,375.39,0,0,0,43.72-100.59c5.35-19.45,9.58-39.18,13.17-59s6.53-39.82,9.3-59.79q.48-3.54,1-7.07c.06-.46-.67-.45-.74,0Z"/><path class="cls-5" d="M803.42,773.21c22.89,5.63,54.52,10,77,11.32,42.26,2.46,94,.92,127.6-24.88,10.89-8.37,20.39-22.08,15.94-35.07-2.83-8.25-10.82-13.9-19.25-16.13s-17.33-1.53-26-.54a391.65,391.65,0,0,0-175.24,65.3"/><path class="cls-16" d="M813,771.17a390,390,0,0,0,59.7,8.2c32.79,1.74,73,.53,99.06-18.46,8.46-6.16,15.86-16.24,12.42-25.77-2.18-6-8.37-10.19-14.91-11.81s-13.45-1.1-20.18-.36A315.91,315.91,0,0,0,813,771.17"/><path class="cls-6" d="M989.24,736.38q-17.62,4-35.25,7.93-18,4-36.08,7.87t-36.45,7.46q-18.13,3.55-36.36,6.69c-12,2-24,3.92-36,5.57l-4.37.59c-.52.07-.5.89,0,.82,12-1.58,23.94-3.4,35.87-5.39q18.18-3,36.26-6.55,18.25-3.51,36.46-7.37t36.33-7.88q17.77-3.95,35.54-8l4.31-1c.52-.12.27-.91-.25-.79Z"/><path class="cls-5" d="M793.31,769.77c48-2.51,101.48-31,139.91-59.8,25.29-19,50.27-39.09,68.95-64.6a181.48,181.48,0,0,0,31.24-70.47c3.41-16.63,2.82-37.28-11.52-46.36-7.74-4.9-17.85-4.91-26.49-1.85s-16,8.89-22.71,15.15c-19.08,17.84-33.71,39.82-48.57,61.31-38.7,56-86.76,114.77-130.81,166.62"/><path class="cls-16" d="M806.26,763c37-1.84,78.37-22.81,108-44,19.54-14,38.83-28.79,53.26-47.58A130.83,130.83,0,0,0,991.7,619.5c2.63-12.25,2.18-27.46-8.9-34.14-6-3.61-13.79-3.62-20.46-1.37S950,590.53,944.8,595.14c-14.74,13.15-26,29.33-37.52,45.16-29.89,41.2-67,84.52-101,122.7"/><path class="cls-6" d="M1003.24,568.67l-42.16,51.52c-12.48,15.25-24.86,30.57-37.59,45.6-11.73,13.83-23.79,27.4-36.64,40.21A334.79,334.79,0,0,1,846,741.1,220.21,220.21,0,0,1,799.36,767q-3.06,1.21-6.15,2.33c-.5.18-.29,1,.21.8a213.9,213.9,0,0,0,47.27-24.35,312.83,312.83,0,0,0,41.39-34c13.14-12.65,25.44-26.15,37.32-40,12.54-14.58,24.64-29.54,36.82-44.42l42.3-51.68,5.3-6.48c.34-.41-.24-1-.58-.59Z"/><g class="cls-17"><path class="cls-5" d="M948.05,721.57c9.65-3,18.26-8.4,26.36-14.32,4.28-3.13,8.47-6.4,12.67-9.64,4.6-3.54,9.19-7.1,13.72-10.72q12.93-10.35,25.3-21.36t24.25-22.73q11.82-11.68,23-24l2.71-3c.63-.7-.41-1.76-1-1q-11,12.25-22.69,23.94t-23.91,22.72q-12.24,11.05-25.05,21.46c-8.72,7.08-17.61,14-26.58,20.72-8,6-16.3,11.8-25.69,15.33-1.14.43-2.29.82-3.45,1.18-.91.28-.53,1.71.39,1.43Z"/><path class="cls-5" d="M1071.91,618.63a20,20,0,0,1,9.93-15.49c2.24-1.25,5.3-1.94,7.17-.19a4.82,4.82,0,0,1,.82,5.26,11.51,11.51,0,0,1-3.58,4.31,43.68,43.68,0,0,1-14.64,8"/><path class="cls-5" d="M1065.84,626.19c-2.68-1.74-3.87-5-4.46-8.16a15.36,15.36,0,0,1,0-6.68,7.25,7.25,0,0,1,4.12-5,1.58,1.58,0,0,1,1.87.3,6.34,6.34,0,0,1,2,4.36,15.26,15.26,0,0,1-.59,4.89,52.6,52.6,0,0,1-3.91,10.59"/><path class="cls-5" d="M1052,639.3a7.36,7.36,0,0,1-2.78-2.06c-2.21-2.28-4.54-4.78-5-7.92a11.77,11.77,0,0,1,.53-4.75c.69-2.41,1.88-4.89,4.11-6.05a3.55,3.55,0,0,1,2.41-.41,3.31,3.31,0,0,1,2.13,2,8.05,8.05,0,0,1,.46,3A53.3,53.3,0,0,1,1052,639.3"/><path class="cls-5" d="M1036.71,655.12c-.29.25-.73,0-1-.21A22.6,22.6,0,0,1,1029,647a15.07,15.07,0,0,1-1.25-10.2,5.79,5.79,0,0,1,2.56-3.85,4.82,4.82,0,0,1,5.54,1.25,10.07,10.07,0,0,1,2.27,5.58c.74,5.43-.5,10.92-1.73,16.26"/><path class="cls-5" d="M1019.52,671a9.19,9.19,0,0,1-3.81-3c-2.6-3.07-5-6.46-6.05-10.34s-.64-8.35,1.91-11.47a4.83,4.83,0,0,1,4.14-2.07,4.91,4.91,0,0,1,3,2c3.12,3.9,3.23,9.38,2.73,14.36a82.93,82.93,0,0,1-1.46,9.26"/><path class="cls-5" d="M997.4,688.68a29.46,29.46,0,0,1-11.09-22.11c-.08-3.28.83-7.16,3.88-8.37a6,6,0,0,1,5.91,1.29,11.65,11.65,0,0,1,3.22,5.4c2.25,7.13.85,14.84-.57,22.19"/><path class="cls-5" d="M1052.7,640.17c4.91-2.15,10.54-1.56,15.85-.78,1.28.2,2.77.54,3.32,1.73a3.1,3.1,0,0,1-.83,3.2,8,8,0,0,1-5.42,2.5,14.64,14.64,0,0,1-6-1,18.46,18.46,0,0,1-7.87-5.38"/><path class="cls-5" d="M1066.13,625.72c4.92-2.15,10.55-1.56,15.85-.77,1.29.19,2.78.53,3.32,1.72a3.08,3.08,0,0,1-.82,3.2,8,8,0,0,1-5.42,2.5,14.29,14.29,0,0,1-6-1,18.46,18.46,0,0,1-7.87-5.38"/><path class="cls-5" d="M1036.87,654.84a22.7,22.7,0,0,1,19.8.19c1.35.68,2.74,1.65,3.12,3.11a3.86,3.86,0,0,1-1.17,3.59,7.07,7.07,0,0,1-3.52,1.69,15.58,15.58,0,0,1-8.92-1,30.58,30.58,0,0,1-7.71-4.78,5.37,5.37,0,0,1-2.16-2.82"/><path class="cls-5" d="M1019.72,670c6-2.08,12.57-.87,18.69.75,2.37.62,5,1.49,6.14,3.64,1.48,2.67-.15,6.28-2.83,7.73s-6,1.15-8.9.14c-5.43-1.9-9.86-6.1-12.87-11"/><path class="cls-5" d="M998.48,687.25c4.59-1.51,9.66-.91,14.21.71s8.67,4.23,12.75,6.81c2,1.25,4.17,2.83,4.36,5.17a4.85,4.85,0,0,1-2.09,4.1,9.65,9.65,0,0,1-4.48,1.6c-8.22,1.12-16.55-3.26-21.62-9.82-2.17-2.79-3.88-6.21-3.53-9.73"/><path class="cls-5" d="M972.32,708.72c-.25.42-.89.12-1.25-.21a26.83,26.83,0,0,1-7.94-23.27,12,12,0,0,1,1.56-4.61,12.54,12.54,0,0,1,6-4.42,2.44,2.44,0,0,1,3.37.72,2.54,2.54,0,0,1,.16.28c3.29,4.33,4.37,10.09,3.71,15.49a38.52,38.52,0,0,1-5.73,15.17"/><path class="cls-5" d="M970.81,708.63a21.16,21.16,0,0,1,11.43-1.24,55.78,55.78,0,0,1,11.2,3.13c2.69,1,5.46,2.06,7.42,4.14s2.81,5.5,1.18,7.85-4.77,2.74-7.56,2.68a28,28,0,0,1-15.5-4.65c-4.47-3.15-7.75-8.22-8-13.69"/></g><g class="cls-17"><path class="cls-5" d="M901.54,642.7c6.15-8,10-17.42,13.2-26.94,1.68-5,3.2-10.12,4.76-15.19q2.55-8.33,5-16.69,4.5-15.89,8.24-32.06t6.6-32.58q2.88-16.37,4.9-32.87c.16-1.33.32-2.67.47-4,.11-.95-1.35-1.21-1.46-.26q-1.9,16.39-4.64,32.66t-6.33,32.37q-3.6,16.1-8,32c-3,10.82-6.27,21.58-9.67,32.28-3,9.5-6.46,19.06-12.07,27.38-.68,1-1.4,2-2.14,3-.58.75.57,1.7,1.15.94Z"/><path class="cls-5" d="M942.93,487.06a20,20,0,0,1-.87-18.38c1.1-2.32,3.19-4.66,5.73-4.32a4.84,4.84,0,0,1,3.72,3.82,11.78,11.78,0,0,1-.43,5.59,43.61,43.61,0,0,1-7.3,15"/><path class="cls-5" d="M942.36,496.73c-3.19.14-6.07-1.85-8.37-4.07a15.29,15.29,0,0,1-3.89-5.42,7.27,7.27,0,0,1,.46-6.47,2,2,0,0,1,.72-.71,1.8,1.8,0,0,1,1-.13,6.3,6.3,0,0,1,4.19,2.36,15.55,15.55,0,0,1,2.35,4.33,52.13,52.13,0,0,1,2.94,10.9"/><path class="cls-5" d="M938.69,515.42a7.36,7.36,0,0,1-3.46-.08c-3.12-.57-6.47-1.26-8.64-3.58a11.82,11.82,0,0,1-2.32-4.17c-.83-2.36-1.29-5.08-.15-7.31a3.47,3.47,0,0,1,1.73-1.73,3.31,3.31,0,0,1,2.91.42,8.45,8.45,0,0,1,2.12,2.18,53.3,53.3,0,0,1,7.81,14.27"/><path class="cls-5" d="M935.35,537.18c-.08.37-.57.45-1,.43a22.59,22.59,0,0,1-10.09-2.55,15.14,15.14,0,0,1-6.93-7.6,5.84,5.84,0,0,1-.14-4.62,4.81,4.81,0,0,1,5.25-2.18,10,10,0,0,1,5.08,3.23c3.75,4,5.92,9.19,8,14.26"/><path class="cls-5" d="M930.56,560.12a9.16,9.16,0,0,1-4.87-.28c-3.9-1-7.8-2.38-10.92-4.92s-5.36-6.44-5.08-10.46a4.1,4.1,0,0,1,5.75-4.19c4.81,1.38,8.07,5.79,10.55,10.13a82,82,0,0,1,4.17,8.4"/><path class="cls-5" d="M922.74,587.31a29.49,29.49,0,0,1-21.85-11.61c-2-2.62-3.47-6.32-1.68-9.06a6,6,0,0,1,5.57-2.38,11.62,11.62,0,0,1,5.75,2.54c6,4.51,9.29,11.61,12.38,18.42"/><path class="cls-5" d="M939.73,515.74c2.77-4.6,7.7-7.38,12.48-9.81,1.16-.59,2.57-1.17,3.7-.52a3.13,3.13,0,0,1,1.19,3.09,8,8,0,0,1-3,5.18,14.23,14.23,0,0,1-5.49,2.62,18.3,18.3,0,0,1-9.52.16"/><path class="cls-5" d="M942.32,496.18c2.77-4.6,7.7-7.38,12.48-9.81,1.16-.59,2.57-1.17,3.7-.52a3.13,3.13,0,0,1,1.19,3.09,8,8,0,0,1-3,5.18,14.38,14.38,0,0,1-5.49,2.62,18.3,18.3,0,0,1-9.52.16"/><path class="cls-5" d="M935.33,536.86a22.67,22.67,0,0,1,16.25-11.3c1.49-.23,3.18-.25,4.34.73a3.84,3.84,0,0,1,1.13,3.6,7.08,7.08,0,0,1-1.89,3.41,15.57,15.57,0,0,1-7.85,4.36,30.62,30.62,0,0,1-9.06.57,5.42,5.42,0,0,1-3.39-1.05"/><path class="cls-5" d="M930.13,559.17c3.67-5.16,9.74-8,15.67-10.21,2.29-.86,4.91-1.66,7.12-.59,2.75,1.33,3.51,5.21,2.16,7.94s-4.23,4.42-7.17,5.27c-5.53,1.6-11.57.74-16.87-1.52"/><path class="cls-5" d="M922.79,585.51c2.87-3.88,7.35-6.33,12-7.64s9.52-1.57,14.34-1.83c2.34-.13,5-.11,6.55,1.69a4.82,4.82,0,0,1,.67,4.55,9.52,9.52,0,0,1-2.72,3.9c-6,5.67-15.39,6.93-23.32,4.52-3.38-1-6.76-2.83-8.5-5.9"/><path class="cls-5" d="M913.89,618.17c0,.48-.66.62-1.14.55a26.8,26.8,0,0,1-20-14.38,12.24,12.24,0,0,1-1.4-4.65,12.59,12.59,0,0,1,2.3-7.06,3.11,3.11,0,0,1,1.2-1.29,3,3,0,0,1,2.26.06c5.19,1.63,9.4,5.7,12,10.48a38.76,38.76,0,0,1,4.11,15.68"/><path class="cls-5" d="M912.61,619a21.34,21.34,0,0,1,8.6-7.63,56.66,56.66,0,0,1,10.94-3.93c2.76-.76,5.65-1.49,8.45-.92s5.47,2.85,5.5,5.71-2.3,5-4.61,6.57a28,28,0,0,1-15.32,5.2c-5.48,0-11.08-2.22-14.45-6.54"/></g><g class="cls-17"><path class="cls-5" d="M595.62,660.84c-1.53-10-5.64-19.3-10.32-28.17-2.47-4.69-5.09-9.31-7.68-13.95-2.84-5.06-5.69-10.12-8.62-15.13q-8.34-14.3-17.43-28.15t-19-27.3q-9.83-13.41-20.35-26.28l-2.56-3.11c-.61-.73-1.81.14-1.2.88q10.52,12.71,20.37,25.94t19,27Q557,586.3,565.4,600.48c5.73,9.66,11.24,19.46,16.62,29.32,4.77,8.75,9.3,17.85,11.42,27.65q.38,1.78.66,3.6c.14.94,1.62.76,1.47-.18Z"/><path class="cls-5" d="M511.86,523.28A20,20,0,0,1,498,511.19c-.92-2.39-1.16-5.52.85-7.12a4.81,4.81,0,0,1,5.32,0,11.65,11.65,0,0,1,3.75,4.17,43.72,43.72,0,0,1,5.78,15.65"/><path class="cls-5" d="M518.45,530.39c-2.11,2.39-5.54,3.1-8.72,3.22a15.24,15.24,0,0,1-6.62-.94,7.26,7.26,0,0,1-4.35-4.81,1.89,1.89,0,0,1,0-1,1.83,1.83,0,0,1,.58-.79,6.31,6.31,0,0,1,4.61-1.4,15.11,15.11,0,0,1,4.75,1.3,51.71,51.71,0,0,1,9.9,5.42"/><path class="cls-5" d="M529.41,546a7.36,7.36,0,0,1-2.45,2.45c-2.57,1.86-5.39,3.8-8.56,3.76a11.61,11.61,0,0,1-4.62-1.21c-2.28-1-4.56-2.58-5.39-5a3.53,3.53,0,0,1-.05-2.44,3.3,3.3,0,0,1,2.32-1.82,8.4,8.4,0,0,1,3,0A53.18,53.18,0,0,1,529.41,546"/><path class="cls-5" d="M542.82,563.43c.2.32-.08.72-.36,1a22.55,22.55,0,0,1-8.81,5.51,15.07,15.07,0,0,1-10.28-.25,5.79,5.79,0,0,1-3.44-3.1,4.83,4.83,0,0,1,2.05-5.3,10,10,0,0,1,5.85-1.43c5.48.06,10.73,2.09,15.84,4.08"/><path class="cls-5" d="M556.06,582.76a9,9,0,0,1-3.56,3.32c-3.42,2.13-7.12,4-11.12,4.48S533,590,530.32,587a4.83,4.83,0,0,1-1.45-4.4,5,5,0,0,1,2.4-2.66c4.32-2.52,9.76-1.82,14.61-.6a82.89,82.89,0,0,1,9,2.79"/><path class="cls-5" d="M570.28,607.21A29.38,29.38,0,0,1,546.79,615c-3.26-.4-7-1.86-7.71-5.06a6,6,0,0,1,2.14-5.66,11.5,11.5,0,0,1,5.81-2.39c7.38-1.2,14.81,1.32,21.87,3.79"/><path class="cls-5" d="M530.36,545.43c-1.41-5.17,0-10.66,1.55-15.79.38-1.25.93-2.67,2.18-3a3.15,3.15,0,0,1,3.06,1.28,8.06,8.06,0,0,1,1.67,5.74,14.21,14.21,0,0,1-1.9,5.77,18.37,18.37,0,0,1-6.47,7"/><path class="cls-5" d="M518,530c-1.41-5.18,0-10.66,1.55-15.8.37-1.24.93-2.66,2.18-3a3.12,3.12,0,0,1,3,1.28,8,8,0,0,1,1.68,5.73,14.3,14.3,0,0,1-1.9,5.78,18.52,18.52,0,0,1-6.47,7"/><path class="cls-5" d="M542.57,563.23a22.72,22.72,0,0,1,3.07-19.56c.88-1.24,2-2.47,3.54-2.63a3.85,3.85,0,0,1,3.38,1.68,7.14,7.14,0,0,1,1.15,3.72,15.54,15.54,0,0,1-2.28,8.68,30.64,30.64,0,0,1-5.85,6.94,5.35,5.35,0,0,1-3.11,1.72"/><path class="cls-5" d="M555.08,582.4c-1.19-6.21,1-12.55,3.47-18.37,1-2.25,2.2-4.69,4.49-5.55,2.86-1.06,6.2,1.07,7.24,3.94s.26,6.11-1.16,8.82c-2.67,5.1-7.47,8.86-12.77,11.13"/><path class="cls-5" d="M569,605.93c-.81-4.75.51-9.68,2.78-13.94a64.65,64.65,0,0,1,8.6-11.63c1.52-1.77,3.41-3.71,5.75-3.55a4.8,4.8,0,0,1,3.75,2.66,9.49,9.49,0,0,1,.93,4.66c-.09,8.3-5.64,15.91-12.87,20-3.08,1.73-6.71,2.92-10.14,2.06"/><path class="cls-5" d="M586.45,635c.37.31,0,.9-.39,1.2a26.77,26.77,0,0,1-24.18,4.46,11.87,11.87,0,0,1-4.33-2.21,12.64,12.64,0,0,1-3.51-6.54,2.43,2.43,0,0,1,1.5-3.35c4.78-2.62,10.62-2.85,15.88-1.41A38.48,38.48,0,0,1,585.58,635"/><path class="cls-5" d="M586.14,636.43a21.17,21.17,0,0,1,.45-11.49,55.72,55.72,0,0,1,4.72-10.62c1.36-2.52,2.83-5.11,5.18-6.73s5.85-2,7.94,0,2,5.12,1.55,7.87a28.09,28.09,0,0,1-6.86,14.66,18.16,18.16,0,0,1-14.71,5.9"/></g><path class="cls-15" d="M704.14,502.94c29.61,1.25,61.66,10.19,83.33,30.4,1.83,1.71,3.64,3.59,4.44,6,1.17,3.47,0,7.24-1.14,10.73a219,219,0,0,0-1.95,125.15c3,10.66,6.88,21.19,7.92,32.22s-1.16,23-8.78,31a41.73,41.73,0,0,1-11.64,8.18c-23.71,12-51.54,11.53-78.08,10.43-16.36-.68-32.89-1.53-48.64-6s-30.88-12.94-40.45-26.22c-9.88-13.71-13-31.12-14.22-48-2.86-38.27,2.34-76.64,3.06-115,.21-11.15,0-22.65-4.38-32.93,20.22-14,44.39-22.48,68.5-27.27,5.17,6.89,12.44,10,21,10.47s15.13-2.82,21-9.15"/><path class="cls-18" d="M784.19,702.6c-1-11,6.88-23.79,4.09-34.45-7.1-27.09-20.47-53.43-17.59-81.41-6.08,3-11.59,7.07-14.72,13.08-2.58,4.94-3.24,10.69-3.31,16.28-.12,11.18,2,22.27,2.41,33.44s-1,23-7.25,32.09c-7.26,10.56-19.78,15.89-32,19.16a244.59,244.59,0,0,1-25,5c-9.65,1.52-19.46,2.8-29.14,1.55S642.33,702.1,636,694.53c-10.09-12-9.78-29.42-11.6-45.13A141,141,0,0,0,609.1,600c-2.42-4.59-5.26-9.21-9.62-11.9h0c-1.5,28-17.72,57.44-15.79,85.39,1.16,16.85,18.19,32.84,27.31,46.55,8.84,13.29,22.81,21.75,37.36,26.23s29.8,5.33,44.91,6c24.51,1.1,50.22,1.55,72.11-10.44a38.66,38.66,0,0,0,10.75-8.17C783.13,725.57,785.15,713.63,784.19,702.6Z"/><path class="cls-15" d="M605.94,521.28c9.14,40.66,1.26,88.64-8.89,129.06-3,12-2.38,25.17,1.92,31.28,4.46,6.32,12.14,10.1,19.17,13.33,16.32,7.53,27.67,16.4,40.13,29.36,5,5.19,9.57,11,11.73,17.91s1.53,14.95-3.07,20.5c-4.39,5.31-11.64,7.5-18.53,7.5s-13.6-1.92-20.31-3.49a213,213,0,0,0-34.17-5.12c-10-.67-20.09-.67-29.66-3.48-13.63-4-25.34-13.69-32.51-25.94a68,68,0,0,1-8.47-41c.77-7.57,2.68-15,4.66-22.33,8.18-30.44,19.45-57.1,29.78-86.88,4.23-12.19,12-26,19.45-36.49s16.05-22,28.77-24.18"/><path class="cls-6" d="M609.27,598.71c5.52-25.12,3.56-52.91-2.34-77.7-.31-1.29-2.29-.74-2,.55a192.74,192.74,0,0,1,5,54,137.38,137.38,0,0,1-2.6,22.6c-.29,1.29,1.7,1.84,2,.54Z"/><path class="cls-10" d="M684.2,742.5s-27.22-6.76-37.4-.93-25.65,14.35-25.19,25.19v4.44s73,2.13,78.9-4.44"/><path class="cls-15" d="M765.52,518.22c13.36,1.55,28,17.11,37.2,30.57s15.53,28.67,21.74,43.76l34.92,84.75c3.61,8.76,7.24,17.59,9,26.9a69.47,69.47,0,0,1,.39,23.46c-1,6.37-2.94,12.75-6.92,17.81-5.63,7.16-14.51,10.8-23,14-18,6.83-36.39,13.23-55.56,14.55a215,215,0,0,1-22.71,0c-20.9-.76-41.89-1.54-62.46-5.35a9.46,9.46,0,0,1-4.2-1.51,9.67,9.67,0,0,1-2.58-3.84q-3.11-6.78-6.2-13.57c-1.16-2.52-2.34-5.19-2.12-8,.3-3.72,3-6.73,5.77-9.26a91.12,91.12,0,0,1,24.6-16.27c18.54-8.31,39.71-10.39,57.12-20.86a26.69,26.69,0,0,0,5.85-4.45c6.42-6.82,6-17.79,2.44-26.43s-6.12-16.89-9.66-25.56c-7.86-19.28-11.79-31.85-12.22-48.33-.61-23.46,1.14-50.19,8.63-72.43"/><path class="cls-18" d="M694.91,727.87a58.43,58.43,0,0,1,6,10.87,91.48,91.48,0,0,1,7.53,30.78c.09,1.32,2.15,1.33,2.06,0a94.8,94.8,0,0,0-7.44-31,58.85,58.85,0,0,0-6.37-11.72c-.77-1.06-2.56,0-1.77,1Z"/><path class="cls-6" d="M757,599.82c-1.72-26.88.35-55.9,9.51-81.32.45-1.25-1.54-1.79-2-.55-9.22,25.57-11.32,54.84-9.59,81.87.08,1.32,2.14,1.33,2.06,0Z"/><rect class="cls-19" x="91.61" y="777.59" width="973.05" height="17.78" rx="3.03"/><rect class="cls-20" x="478.83" y="769.34" width="331.91" height="8.26" rx="0.5"/><polygon class="cls-20" points="624.48 777.6 341.31 777.6 327.63 580.99 605.12 580.99 624.48 777.6"/><polygon class="cls-2" points="614.85 777.6 331.68 777.6 318 580.99 595.49 580.99 614.85 777.6"/><circle class="cls-21" cx="466.42" cy="679.29" r="16.91"/><path class="cls-14" d="M320.37,615l11.31,162.46H614.85L611.07,739C462,719.76,359.36,647.06,320.37,615Z"/></svg>