<svg xmlns="http://www.w3.org/2000/svg" viewBox="0 0 512 512">
  <path d="M481.095 86.02H450.19l30.905 77.264H512v-46.358c0-16.998-13.907-30.906-30.905-30.906z" fill="#776dff"/>
  <g fill="#8981ff">
    <path d="M450.189 86.02h-256v77.264h286.905v-46.358c.001-16.998-13.907-30.906-30.905-30.906zM481.095 395.074l-30.905 77.264h30.905c16.998 0 30.905-13.907 30.905-30.905V425.98l-30.905-30.906z"/>
  </g>
  <g fill="#8b83fd">
    <path d="M481.095 441.433v-46.358L0 425.98v15.453c0 16.998 13.907 30.905 30.905 30.905h419.284c16.998 0 30.906-13.907 30.906-30.905z"/>
    <path d="M481.095 132.378H450.19l30.905 293.602H512V163.284c0-16.998-13.907-30.906-30.905-30.906z"/>
  </g>
  <path d="M481.095 163.284c0-16.998-13.907-30.905-30.905-30.905H286.905l-44.668-67.002c-9.428-14.142-31.051-25.714-48.049-25.714H30.905C13.907 39.662 0 53.569 0 70.567V425.98h481.095V163.284z" fill="#a29bff"/>
</svg>
