<svg viewBox="80 160 3119.999999999999 1919.9999999999998" xmlns="http://www.w3.org/2000/svg" xmlns:blush="http://design.blush" overflow="visible" xmlns:xlink="http://www.w3.org/1999/xlink" width="3119.999999999999px" height="1919.9999999999998px"><g id="Master/Background/User Interface 1" stroke="none" stroke-width="1" fill="none" fill-rule="evenodd" blush:viewBox="144 120 3055.999999999999 1951.9999999999995" blush:i="0"><g id="Chair" transform="translate(596.000000, 1255.000000) scale(1 1)" blush:width="700" blush:height="800" blush:component="Chair" blush:i="0.0" blush:value="Stool" blush:viewBox="214.15525114155253 396 271.6894977168952 403.9999999999999"><g id="Chair/Stool" stroke="none" stroke-width="1" fill="none" fill-rule="evenodd" blush:viewBox="214.15525114155253 396 271.6894977168952 403.9999999999999" blush:i="0.0.0"><g id="Group" transform="translate(249.000000, 425.000000)" fill="#8E2420" blush:i="0.0.0.0"><path d="M32,0.639462324 L21.361,173.639462 L181.639,173.639462 L171,0.639462324 L189,0.639462324 L195.476,173.639462 L196,173.639462 L196,186.639462 L195.963,186.639462 L203,374.639462 L194,374.639462 L182.439,186.639462 L20.561,186.639462 L9,374.639462 L0,374.639462 L14,0.639462324 L32,0.639462324 Z" id="Combined-Shape" blush:i="0.0.0.0.0"/></g><path d="M233.392254,403.051901 L352.708336,399.021055 C353.123705,399.007023 353.539436,399.00738 353.95478,399.022127 L466.638699,403.023039 C476.325148,403.366962 484,411.319151 484,421.011704 L484,430.639462 C484,440.580588 475.941125,448.639462 466,448.639462 L234,448.639462 C224.058875,448.639462 216,440.580588 216,430.639462 L216,421.041638 C216,411.337076 223.693225,403.379563 233.392254,403.051901 Z" id="Rectangle" fill="#FF0057" blush:i="0.0.0.1"/></g></g><g id="Medium Plants" transform="translate(-1.000000, 1255.000000) scale(1 1)" blush:width="845" blush:height="800" blush:component="Medium Plants" blush:i="0.1" blush:value="Plant 4" blush:viewBox="92.94999999999993 144.18604651162786 663.3250000000002 655.3911205073997"><defs blush:i="0.1.0"><polygon id="medium-plantsplant-4-path-1" points="0.885 0.4042 225.003 0.4042 225.003 229 0.885 229" blush:i="0.1.0.0"/></defs><g id="Medium Plants/Plant 4" stroke="none" stroke-width="1" fill="none" fill-rule="evenodd" blush:viewBox="92.94999999999993 144.18604651162786 663.3250000000002 655.3911205073997" blush:i="0.1.1"><g id="Group-16" transform="translate(94.000000, 144.000000)" blush:i="0.1.1.0"><path d="M662.512,98.475 C662.512,98.475 654.898,157.099 541.284,228.111 C510.266,247.427 495.952,267.763 485.27,286.623 C475.046,289.917 459.708,294.121 450.39,293.439 C450.39,293.439 464.366,297.417 479.476,297.417 C464.82,325.253 450.172,348.431 395.524,357.747 C395.524,357.747 337.882,323.167 382.904,223.567 C394.72,233.791 410.058,253.105 410.058,253.105 C408.24,238.223 394.606,221.181 387.79,213.453 C387.902,213.341 387.902,213.227 388.016,213.113 C421.08,151.081 484.704,148.921 545.942,145.173 C545.26,153.465 543.216,165.851 537.876,175.393 C537.876,175.393 554.122,163.123 559.122,144.263 C569.232,143.581 579.232,142.673 589.002,141.309 C617.178,137.445 647.174,121.881 662.512,98.475" id="Fill-1" fill="#009BA0" blush:i="0.1.1.0.0"/><path d="M10.3910291,113.374429 C25.9612131,111.077316 44.3658046,110.707752 64.7231199,113.490176 C92.7811,117.325122 121.021718,126.762182 148.555346,143.024165 C148.887306,143.220228 149.073691,143.586985 149.043724,143.964048 L149.025625,144.089897 L141.939,177.971 L157.743907,149.967727 C158.008197,149.499404 158.589421,149.329819 159.058442,149.562859 L159.164491,149.623832 C168.811192,155.971576 178.331005,163.262123 187.817736,171.593001 C223.39881,202.762455 245.340792,234.773338 256.182175,266.376895 C263.611965,288.035365 265.047051,306.790526 263.048678,321.394825 C262.965152,322.005241 262.878548,322.576963 262.790336,323.109279 L262.656999,323.878111 L262.522354,324.587303 L262.387427,325.234372 L262.270923,325.733668 L262.231693,325.848056 L262.19283,325.931313 L262.135104,326.027965 L262.067638,326.116488 L261.991346,326.196343 L261.937861,326.243242 L261.839616,326.313749 L261.734763,326.371215 L261.723,326.375 C261.685299,326.393589 261.651094,326.406878 261.616178,326.418272 L261.510483,326.446248 L261.39938,326.463179 L261.286874,326.467227 L261.15729,326.45616 L261.040332,326.431323 L260.925944,326.392093 L260.842687,326.35323 L260.746035,326.295504 L260.710128,326.269686 C256.52596,323.158633 252.280858,320.451042 247.848299,318.035552 L246.822015,317.483266 L245.861482,316.978041 C245.701612,316.894826 245.541821,316.812091 245.382062,316.729817 L244.423531,316.241522 L243.46357,315.763265 C243.303334,315.684336 243.142946,315.605784 242.982361,315.527589 L242.016105,315.062517 L241.042887,314.604988 L240.060495,314.154002 C239.895875,314.079328 239.730781,314.004885 239.565167,313.930652 L238.564865,313.48761 C238.396984,313.414134 238.22849,313.340828 238.059338,313.267669 L237.036148,312.830324 L235.994935,312.395529 L234.933485,311.962285 C234.754768,311.890152 234.575115,311.818041 234.394481,311.745933 L233.298528,311.313144 C233.113784,311.240962 232.927966,311.16874 232.741028,311.096458 L231.605595,310.661878 L230.441076,310.224855 L229.245259,309.784392 L228.015931,309.339488 L226.104266,308.661626 L224.781482,308.201256 L223.417444,307.732952 L221.289196,307.013436 L219.812343,306.520928 L206.810764,302.22715 L202.409619,300.749307 L199.321756,299.691506 L196.319463,298.634097 L194.165491,297.849018 L192.409498,297.187179 L190.967544,296.62652 L189.08907,295.871239 L188.094412,295.46009 L187.031034,295.012617 L185.945089,294.548128 L184.825843,294.062648 L183.662562,293.5522 L181.811596,292.731019 L181.160962,292.440501 C165.668155,285.513952 150.417057,276.554523 133.881881,264.18801 C133.381817,263.814016 133.349536,263.089033 133.784048,262.669558 L133.884302,262.584585 L154.071,247.581 L128.318251,259.139532 C128.025678,259.270838 127.690765,259.252896 127.41632,259.097547 L127.302702,259.02259 L126.20091,258.173175 L124.740219,257.019217 L123.435516,255.968337 L121.948112,254.755968 C114.317692,248.488973 106.440774,241.063179 98.5597118,232.878472 L96.8083948,231.047319 C93.8897479,227.975117 90.972995,224.802876 88.070449,221.550911 L86.3307248,219.590328 C86.0410878,219.262024 85.7516174,218.932963 85.462326,218.603166 L83.7288245,216.615711 C83.4402984,216.28305 83.1519759,215.949693 82.8638695,215.615661 L81.1379203,213.603528 L79.417745,211.576162 L77.7039343,209.534539 C77.4188625,209.193134 77.1340804,208.851176 76.8496005,208.508685 L75.1464452,206.447503 C74.8632231,206.102961 74.5803277,205.757926 74.2977714,205.412419 L72.6066012,203.333873 C72.3254505,202.986559 72.0446635,202.638813 71.7642524,202.290656 L70.0863971,200.19694 L68.4181571,198.094331 C68.1409512,197.743209 67.8641706,197.391757 67.5878275,197.039995 L65.9351187,194.925873 C65.3860317,194.220035 64.8387936,193.513121 64.2935028,192.805294 L62.6635708,190.679234 L61.0459137,188.548669 C60.7773599,188.193253 60.5093422,187.837691 60.241873,187.482001 L58.6437364,185.346505 C58.37851,184.99039 58.1138565,184.634188 57.8497884,184.277921 L56.2725023,182.139689 C55.7491472,181.42679 55.228232,180.71379 54.7098551,180.000852 L53.162438,177.862384 L51.6308419,175.725263 L50.1156579,173.590461 L48.7570018,171.686355 L47.4092365,169.813079 C47.1855176,169.503427 46.9622533,169.195054 46.7394439,168.887957 L45.4080508,167.060658 L44.0875961,165.263833 L42.7780991,163.497338 L41.4795787,161.761033 L40.1920541,160.054772 L38.9155442,158.378416 L37.6500681,156.73182 L36.3956449,155.114842 L35.1522937,153.52734 L33.9200334,151.969172 L32.6988832,150.440194 C32.4962851,150.187789 32.2941507,149.936594 32.0924804,149.686607 L30.888031,148.201148 L29.6947393,146.744523 C29.4967882,146.504147 29.2993028,146.264966 29.1022835,146.026978 L27.925764,144.613338 L26.7604499,143.228175 C26.5671658,142.99968 26.3743493,142.772365 26.1820008,142.546228 L25.0335304,141.203515 L23.896313,139.888924 L22.7703676,138.602312 L21.6557133,137.343536 L20.5523691,136.112454 L19.4603542,134.908924 L18.3796874,133.732803 L17.310388,132.583948 C17.1331198,132.394736 16.956326,132.206655 16.780007,132.0197 L15.7277942,130.911478 L14.6869965,129.830165 L13.6576327,128.77562 C13.4870259,128.602086 13.3168964,128.42966 13.1472445,128.258341 L12.1115509,127.220503 C11.7708102,126.88174 11.4345633,126.550135 11.1028205,126.225611 L10.1211146,125.273206 C9.79839023,124.962768 9.48018011,124.659334 9.16649449,124.362829 L8.23902135,123.494021 L7.3387565,122.666324 C7.19098312,122.531774 7.04434597,122.398919 6.89884633,122.267748 L6.0395088,121.500855 L5.20753274,120.773924 L4.40297942,120.086498 C4.27117583,119.975193 4.14051741,119.865515 4.01100544,119.757455 L3.28328667,119.157441 L2.63493837,118.636079 C2.53098592,118.553585 2.42908819,118.473276 2.32924806,118.395131 L1.7549214,117.952054 C1.66332316,117.882478 1.57378826,117.815022 1.4863196,117.749665 L0.960618641,117.363961 L0.574456463,117.092618 L0.458066013,117.015105 C-0.270580867,116.544264 -0.0950827257,115.432463 0.74316699,115.208957 L1.39498615,115.046932 L2.25696813,114.847912 L2.91069485,114.704838 L3.26106716,114.630479 C3.77113547,114.523314 4.30265292,114.416183 4.85530049,114.309527 L5.98867462,114.096981 L7.17782865,113.886491 L8.42219547,113.678844 L9.72120796,113.474829 C9.94223234,113.441173 10.16551,113.407701 10.3910291,113.374429 Z" id="Fill-3" fill="#017C7F" fill-rule="nonzero" blush:i="0.1.1.0.1"/><path d="M331.4778,356.7582 C331.4778,356.7582 277.8958,340.8782 240.0318,272.3862 C252.9298,268.6422 261.2518,259.9882 261.2518,259.9882 C252.0978,262.5682 235.4538,263.6502 235.4538,263.6502 C156.6878,164.7222 196.4138,0.0002 196.4138,0.0002 C205.1518,21.7202 248.5858,52.7902 283.7858,98.4742 C278.9598,102.7202 261.9898,119.9182 257.7458,126.6582 C257.7458,126.6582 276.8158,112.0302 286.9678,107.1182 C319.2578,149.3922 343.6278,201.9702 352.9478,243.4142 C373.2538,334.2902 331.4778,356.7582 331.4778,356.7582" id="Fill-5" fill="#009BA0" blush:i="0.1.1.0.2"/><path d="M213.221,60.438 C226.283,96.12 240.029,131.57 255.003,166.488 C262.539,183.92 270.331,201.262 279.167,218.048 C280.291,220.136 281.347,222.262 282.525,224.314 L286.103,230.45 C288.467,234.544 290.993,238.608 293.429,242.688 C298.161,250.948 302.817,259.266 306.883,267.89 C315.213,285.026 321.729,303.09 326.015,321.68 C328.191,330.966 329.851,340.356 331.375,349.74 C332.161,354.422 332.873,359.132 333.519,363.866 C334.091,368.594 334.659,373.322 335.121,378.058 C337.053,396.988 338.417,415.954 339.741,434.92 C341.031,453.89 342.175,472.864 343.191,491.852 C343.229,492.542 342.699,493.13 342.011,493.167922 C341.321,493.204 340.733,492.674 340.695,491.984 L340.695,491.978 C339.745,473.004 338.665,454.032 337.443,435.072 C336.185,416.118 334.887,397.158 333.023,378.268 C332.579,373.544 332.031,368.834 331.477,364.126 C330.853,359.442 330.163,354.754 329.391,350.06 C327.903,340.684 326.283,331.34 324.153,322.112 C319.963,303.64 313.561,285.704 305.337,268.63 C301.325,260.042 296.717,251.744 292.033,243.502 C289.611,239.416 287.133,235.398 284.759,231.256 L281.177,225.064 C279.997,222.994 278.945,220.858 277.825,218.758 C269.013,201.874 261.271,184.486 253.789,167.008 C238.919,132.004 225.293,96.5 212.347,60.75 C212.259,60.51 212.385,60.244 212.625,60.156 C212.867,60.068 213.135,60.196 213.221,60.438" id="Fill-7" fill="#000" blush:i="0.1.1.0.3"/><path d="M58.6878,139.4418 L153.4198,205.0718 C169.2218,216.0298 184.2658,228.1018 198.3638,241.1918 C201.9418,244.4078 205.3158,247.8418 208.7858,251.1738 C212.1118,254.6498 215.5678,258.0038 218.7678,261.6018 C225.3598,268.6178 231.4738,276.0698 237.3678,283.6838 C243.1938,291.3578 248.5438,299.3918 253.4298,307.7118 C258.1358,316.1338 262.3558,324.8458 265.4158,334.0538 C266.1898,336.3418 266.7758,338.6818 267.4658,340.9938 C268.0938,343.3198 268.8798,345.6138 269.3718,347.9698 C270.4218,352.6678 271.6798,357.3278 272.5558,362.0598 C274.4938,371.4878 276.1238,380.9718 277.5998,390.4738 C283.3618,428.5118 286.8678,466.8138 289.3598,505.1878 C289.4038,505.8758 288.8818,506.4718 288.1938,506.518389 C287.5038,506.5598 286.9098,506.0378 286.8638,505.3478 L286.8638,505.3438 L286.8638,505.3238 C284.5258,467.0358 281.1658,428.7338 275.5658,390.7818 C274.1318,381.3018 272.5418,371.8418 270.6478,362.4498 C269.7938,357.7338 268.5618,353.1058 267.5358,348.4278 C267.0558,346.0778 266.2858,343.8158 265.6738,341.5038 C264.9998,339.2138 264.4258,336.8858 263.6718,334.6258 C260.7018,325.5678 256.5598,316.9238 251.9298,308.5658 C247.1198,300.3038 241.8418,292.3078 236.0798,284.6578 C230.2478,277.0678 224.1958,269.6298 217.6578,262.6198 C214.4898,259.0258 211.0598,255.6718 207.7598,252.1978 C204.3158,248.8658 200.9678,245.4318 197.4158,242.2138 C183.4138,229.1118 168.4698,217.0238 152.7458,206.0318 L58.2718,140.0418 C58.1058,139.9278 58.0638,139.6998 58.1798,139.5338 C58.2938,139.3678 58.5218,139.3258 58.6878,139.4418" id="Fill-9" fill="#000" blush:i="0.1.1.0.4"/><path d="M613.0178,154.895 C580.8438,175.235 548.4818,195.275 516.1918,215.435 L492.0098,230.555 C484.1098,235.679 476.6958,241.627 469.5438,247.821 C462.3498,253.985 455.6518,260.705 449.0918,267.533 C445.9438,271.073 442.6298,274.465 439.6618,278.159 L435.1058,283.605 L430.7858,289.241 C424.9858,296.729 419.8638,304.697 415.0098,312.811 C413.8498,314.867 412.7758,316.973 411.6538,319.053 C410.5878,321.159 409.3378,323.179 408.4198,325.355 L405.5198,331.817 L404.0758,335.049 L402.8718,338.375 L400.4638,345.027 C399.6238,347.235 399.1718,349.559 398.5058,351.819 C397.9038,354.099 397.2478,356.353 396.6858,358.655 L395.1518,365.619 L389.1638,393.517 C381.4018,430.763 373.9698,468.091 366.9418,505.483 C366.8158,506.161 366.1658,506.611 365.4858,506.487 C364.8078,506.361 364.3578,505.707 364.4818,505.027 C371.4418,467.595 378.6498,430.215 386.5218,392.961 L392.5418,365.043 L394.0878,358.073 C394.6538,355.753 395.3278,353.437 395.9418,351.117 C396.6218,348.817 397.0918,346.445 397.9438,344.203 L400.3998,337.437 L401.6298,334.055 L403.0978,330.773 L406.0518,324.217 C406.9858,322.007 408.2518,319.963 409.3358,317.829 C410.4758,315.721 411.5658,313.587 412.7438,311.505 C417.6658,303.293 422.8598,295.237 428.7238,287.677 L433.0958,281.991 L437.6998,276.495 C440.7018,272.771 444.0478,269.349 447.2258,265.781 C453.8518,258.899 460.6138,252.127 467.8818,245.911 C475.1158,239.665 482.5858,233.675 490.6638,228.445 C498.7658,223.347 506.8838,218.467 514.9938,213.467 C547.4558,193.603 579.8478,173.621 612.4238,153.939 C612.6898,153.777 613.0358,153.861 613.1978,154.127 C613.3578,154.389 613.2758,154.731 613.0178,154.895" id="Fill-11" fill="#000" blush:i="0.1.1.0.5"/><g id="Group-15" transform="translate(216.000000, 426.090000)" blush:i="0.1.1.0.6"><mask id="medium-plantsplant-4-mask-2" fill="#fff" blush:i="0.1.1.0.6.0"><use xlink:href="#medium-plantsplant-4-path-1" blush:i="0.1.1.0.6.0.0"/></mask><g id="Clip-14" blush:i="0.1.1.0.6.1"/><path d="M73.761,229.0002 L152.127,229.0002 C180.031,229.0002 203.369,225.7942 206.035,198.0182 L225.003,0.4042 L0.885,0.4042 L19.851,198.0182 C22.517,225.7942 45.855,229.0002 73.761,229.0002" id="Fill-13" fill="#F0F1FF" mask="url(#medium-plantsplant-4-mask-2)" blush:i="0.1.1.0.6.2"/></g></g></g></g><g id="Outdoor Plants" transform="translate(2449.000000, 1090.000000) scale(1 1)" blush:width="751" blush:height="965" blush:component="Outdoor Plants" blush:i="0.2" blush:value="Trees" blush:viewBox="49.712724935732695 24.125 680.5334190231363 945.6999999999998"><g id="Outdoor Plants/Trees" stroke="none" stroke-width="1" fill="none" fill-rule="evenodd" blush:viewBox="49.712724935732695 24.125 680.5334190231363 945.6999999999998" blush:i="0.2.0"><g id="Group" transform="translate(50.000000, 27.000000)" blush:i="0.2.0.0"><path d="M246.327941,707.554023 C202.725234,648.694159 266.995654,634.469818 237.177083,579.041474 C201.045875,511.877502 252.889207,525.364984 230.558991,457.77841 C212.889507,404.298257 182.034281,401.995081 179.286724,325.770544 C176.543382,249.546006 39.2582753,245.25238 68.925141,351.777408 C98.5962208,458.302435 22.2672523,432.071593 35.6974086,509.466735 C53.6492336,612.915227 -18.38566,571.479753 4.55980649,651.097777 C24.0792556,718.828035 -59.1552187,832.362634 138.705486,859 C314.797719,849.998599 289.934862,766.418112 246.327941,707.554023 Z" id="Fill-1" fill="#009BA0" blush:i="0.2.0.0.0"/><path d="M95,585 C95,585 102.269883,617.395249 137,651" id="Stroke-5" stroke="#090E2B" stroke-width="9.107" stroke-linecap="round" stroke-linejoin="round" blush:i="0.2.0.0.1"/><path d="M63,713 C63,713 75.8067111,744.89889 137,778" id="Stroke-7" stroke="#090E2B" stroke-width="9.107" stroke-linecap="round" stroke-linejoin="round" blush:i="0.2.0.0.2"/><path d="M199,637 C199,637 190.990083,687.972701 137,725" id="Stroke-9" stroke="#090E2B" stroke-width="9.107" stroke-linecap="round" stroke-linejoin="round" blush:i="0.2.0.0.3"/><path d="M608.603445,473.480495 C570.590587,379.998182 626.937388,314.013535 549.627883,136.939688 C472.318378,-40.1341592 367.026875,-40.7590157 351.056381,107.78507 C335.090104,256.329155 210.936686,350.641456 268.195115,484.721371 C324.468099,616.493705 207.88992,647.351714 245.711222,745.061987 C293.787219,869.262883 452.912681,874 452.912681,874 C626.199908,874 654.358401,816.786582 667.882995,767.076651 C703.354583,636.700085 625.009296,513.826235 608.603445,473.480495 Z" id="Fill-11" fill="#FFB201" blush:i="0.2.0.0.4"/><path d="M535,314 C535,314 520.978644,385.165722 454,459" id="Stroke-15" stroke="#090E2B" stroke-width="9.107" stroke-linecap="round" stroke-linejoin="round" blush:i="0.2.0.0.5"/><path d="M560,611 C560,611 541.481013,682.167801 453,756" id="Stroke-17" stroke="#090E2B" stroke-width="9.107" stroke-linecap="round" stroke-linejoin="round" blush:i="0.2.0.0.6"/><path d="M365,465 C365,465 376.498556,549.574282 454,611" id="Stroke-19" stroke="#090E2B" stroke-width="9.107" stroke-linecap="round" stroke-linejoin="round" blush:i="0.2.0.0.7"/><line x1="136" y1="938" x2="136" y2="511" id="Stroke-3" stroke="#090E2B" stroke-width="9.107" stroke-linecap="round" stroke-linejoin="round" blush:i="0.2.0.0.8"/><line x1="453" y1="932" x2="453" y2="226" id="Stroke-13" stroke="#090E2B" stroke-width="9.107" stroke-linecap="round" stroke-linejoin="round" blush:i="0.2.0.0.9"/></g></g></g><g id="Outdoor Plants" transform="translate(2235.000000, 1090.000000) scale(1 1)" blush:width="751" blush:height="965" blush:component="Outdoor Plants" blush:i="0.3" blush:value="Trees" blush:viewBox="49.712724935732695 24.125 680.5334190231363 945.6999999999998"><g id="Outdoor Plants/Trees" stroke="none" stroke-width="1" fill="none" fill-rule="evenodd" blush:viewBox="49.712724935732695 24.125 680.5334190231363 945.6999999999998" blush:i="0.3.0"><g id="Group" transform="translate(50.000000, 27.000000)" blush:i="0.3.0.0"><path d="M246.327941,707.554023 C202.725234,648.694159 266.995654,634.469818 237.177083,579.041474 C201.045875,511.877502 252.889207,525.364984 230.558991,457.77841 C212.889507,404.298257 182.034281,401.995081 179.286724,325.770544 C176.543382,249.546006 39.2582753,245.25238 68.925141,351.777408 C98.5962208,458.302435 22.2672523,432.071593 35.6974086,509.466735 C53.6492336,612.915227 -18.38566,571.479753 4.55980649,651.097777 C24.0792556,718.828035 -59.1552187,832.362634 138.705486,859 C314.797719,849.998599 289.934862,766.418112 246.327941,707.554023 Z" id="Fill-1" fill="#009BA0" blush:i="0.3.0.0.0"/><path d="M95,585 C95,585 102.269883,617.395249 137,651" id="Stroke-5" stroke="#090E2B" stroke-width="9.107" stroke-linecap="round" stroke-linejoin="round" blush:i="0.3.0.0.1"/><path d="M63,713 C63,713 75.8067111,744.89889 137,778" id="Stroke-7" stroke="#090E2B" stroke-width="9.107" stroke-linecap="round" stroke-linejoin="round" blush:i="0.3.0.0.2"/><path d="M199,637 C199,637 190.990083,687.972701 137,725" id="Stroke-9" stroke="#090E2B" stroke-width="9.107" stroke-linecap="round" stroke-linejoin="round" blush:i="0.3.0.0.3"/><path d="M608.603445,473.480495 C570.590587,379.998182 626.937388,314.013535 549.627883,136.939688 C472.318378,-40.1341592 367.026875,-40.7590157 351.056381,107.78507 C335.090104,256.329155 210.936686,350.641456 268.195115,484.721371 C324.468099,616.493705 207.88992,647.351714 245.711222,745.061987 C293.787219,869.262883 452.912681,874 452.912681,874 C626.199908,874 654.358401,816.786582 667.882995,767.076651 C703.354583,636.700085 625.009296,513.826235 608.603445,473.480495 Z" id="Fill-11" fill="#FFB201" blush:i="0.3.0.0.4"/><path d="M535,314 C535,314 520.978644,385.165722 454,459" id="Stroke-15" stroke="#090E2B" stroke-width="9.107" stroke-linecap="round" stroke-linejoin="round" blush:i="0.3.0.0.5"/><path d="M560,611 C560,611 541.481013,682.167801 453,756" id="Stroke-17" stroke="#090E2B" stroke-width="9.107" stroke-linecap="round" stroke-linejoin="round" blush:i="0.3.0.0.6"/><path d="M365,465 C365,465 376.498556,549.574282 454,611" id="Stroke-19" stroke="#090E2B" stroke-width="9.107" stroke-linecap="round" stroke-linejoin="round" blush:i="0.3.0.0.7"/><line x1="136" y1="938" x2="136" y2="511" id="Stroke-3" stroke="#090E2B" stroke-width="9.107" stroke-linecap="round" stroke-linejoin="round" blush:i="0.3.0.0.8"/><line x1="453" y1="932" x2="453" y2="226" id="Stroke-13" stroke="#090E2B" stroke-width="9.107" stroke-linecap="round" stroke-linejoin="round" blush:i="0.3.0.0.9"/></g></g></g><g id="Floor" transform="translate(209.875000, 2053.250000)" fill="#090E2B" fill-rule="nonzero" blush:i="0.4"><path d="M1220.625,-2.25 C1222.558,-2.25 1224.125,-0.682996624 1224.125,1.25 C1224.125,3.1185634 1222.66072,4.64512645 1220.81704,4.74482114 L1220.625,4.75 L0.625,4.75 C-1.30799662,4.75 -2.875,3.18299662 -2.875,1.25 C-2.875,-0.618563404 -1.4107224,-2.14512645 0.432964797,-2.24482114 L0.625,-2.25 L1220.625,-2.25 Z" id="Path-4-Copy" blush:i="0.4.0"/><path d="M2755.625,-2.25 C2757.558,-2.25 2759.125,-0.682996624 2759.125,1.25 C2759.125,3.1185634 2757.66072,4.64512645 2755.81704,4.74482114 L2755.625,4.75 L1949.625,4.75 C1947.692,4.75 1946.125,3.18299662 1946.125,1.25 C1946.125,-0.618563404 1947.58928,-2.14512645 1949.43296,-2.24482114 L1949.625,-2.25 L2755.625,-2.25 Z" id="Path-4-Copy-2" blush:i="0.4.1"/></g><g id="UI Elements" transform="translate(946.000000, 117.000000) scale(1 1)" blush:width="1101" blush:height="811" blush:component="UI Elements" blush:i="0.5" blush:value="Graph 1" blush:viewBox="71.56500000000005 52.89130434782612 957.8700000000002 705.2173913043478"><g id="UI Elements/Graph 1" stroke="none" stroke-width="1" fill="none" fill-rule="evenodd" blush:viewBox="71.56500000000005 52.89130434782612 957.8700000000002 705.2173913043478" blush:i="0.5.0"><g id="Interfae-Box-2" transform="translate(74.000000, 54.000000)" blush:i="0.5.0.0"><rect id="Rectangle-Copy-5" fill="#090E2B" x="48" y="36" width="903" height="664" rx="64" blush:i="0.5.0.0.0"/><rect id="Rectangle-Copy" fill="#FFF" x="3" y="3" width="903" height="664" rx="64" blush:i="0.5.0.0.1"/><path d="M842,0 L67,0 C29.9969218,0 0,29.9969218 0,67 L0,603 C0,640.003078 29.9969218,670 67,670 L842,670 C879.003078,670 909,640.003078 909,603 L909,67 C909,29.9969218 879.003078,0 842,0 Z M67,6 L842,6 C875.68937,6 903,33.3106303 903,67 L903,603 C903,636.68937 875.68937,664 842,664 L67,664 C33.3106303,664 6,636.68937 6,603 L6,67 C6,33.3106303 33.3106303,6 67,6 Z" id="Rectangle-Copy-2" fill="#090E2B" fill-rule="nonzero" blush:i="0.5.0.0.2"/><path d="M673.652207,196.061892 C725.00645,183.450641 772.647582,240.93242 818.391391,365.938113 C819.53014,369.050011 817.930586,372.495842 814.818687,373.634591 C811.706789,374.77334 808.260958,373.173786 807.122209,370.061887 C763.365428,250.486217 719.224115,197.227172 676.514061,207.715638 C653.029605,213.482802 633.544648,228.317463 615.50167,252.517239 L614.256991,254.199974 C601.505445,271.579633 592.03819,288.909152 573.748724,326.316838 L567.518035,339.080312 C548.883429,377.093389 539.188692,394.511108 525.293009,412.958504 C505.414913,439.34793 483.31028,455.718327 456.236366,461.728764 C436.921829,466.016612 421.1782,458.232532 407.891528,440.305106 L407.489653,439.758748 C397.832146,426.529971 390.901407,411.491459 378.693953,380.142646 L374.912173,370.411723 C363.259876,340.542313 356.421447,325.666408 347.328808,312.632527 C335.853283,296.18289 323.479895,288.462539 308.325917,289.378699 C252.58721,292.748478 192.546484,355.571595 129.337009,478.620265 C127.822868,481.567814 124.205954,482.72982 121.258406,481.21568 C118.310857,479.701539 117.148851,476.084625 118.662991,473.137077 C183.658283,346.611991 246.260115,281.109083 307.601758,277.400569 C327.296605,276.209884 343.195562,285.995214 356.760264,305.18243 L357.170602,305.766737 C366.788118,319.553003 373.7892,334.631431 385.347233,364.145873 L390.576767,377.584411 C401.83789,406.3973 408.399469,420.546673 416.91497,432.316137 L417.181723,432.683171 C427.976656,447.469987 439.337483,453.188184 453.63567,450.013971 C477.606383,444.692448 497.417079,430.02091 515.708027,405.738522 L516.970246,404.049124 C529.761489,386.785973 539.264869,369.500642 557.378277,332.501458 L563.596726,319.761294 C582.202997,281.752737 591.841212,264.2714 605.445769,245.930132 L605.881319,245.344454 C625.460147,219.084752 647.152481,202.569527 673.652207,196.061892 Z" id="Path-9" fill="#FFB201" fill-rule="nonzero" blush:i="0.5.0.0.3"/><path d="M781.460434,208.362654 C782.299015,205.156808 785.577671,203.237761 788.783517,204.076343 C791.989362,204.914924 793.908409,208.19358 793.069828,211.399425 C755.865734,353.628422 708.054876,420.407249 647.872525,408.893115 C621.818313,403.908403 603.61089,404.829982 590.082856,410.798636 C579.665716,415.394744 572.383618,422.267538 562.160355,435.880495 L560.977924,437.467452 L554.884658,445.787282 C552.262038,449.355987 550.157275,452.139191 548.000044,454.856711 C539.000894,466.193172 530.125211,474.884446 519.015099,482.393565 C505.576907,491.476191 489.491953,498.227654 469.678748,502.626207 C451.420806,506.679489 435.763656,504.612783 421.299351,497.082719 C410.531188,491.476854 401.982197,484.235402 388.562743,470.523341 L382.286237,464.054711 C368.761913,450.109913 360.925256,443.124612 351.081975,437.229012 C338.568307,429.733993 325.246953,426.295033 309.42584,427.251526 C252.303605,430.704948 191.765128,458.910248 127.837444,512.097337 C125.290099,514.216699 121.506985,513.86975 119.387623,511.322404 C117.268261,508.775059 117.61521,504.991945 120.162556,502.872583 C185.906203,448.174633 248.743567,418.898266 308.701682,415.273396 C326.993171,414.167553 342.704286,418.223439 357.247948,426.934316 L358.226563,427.527077 C368.434553,433.780557 376.591104,441.017491 389.642393,454.406395 L395.931778,460.892513 L397.090755,462.080669 C409.692154,474.959181 417.495061,481.573475 426.840579,486.438716 C438.803082,492.666351 451.577524,494.352547 467.078052,490.911413 C485.453067,486.832141 500.138365,480.668166 512.295405,472.451447 C522.283653,465.700574 530.308857,457.84211 538.601368,447.39582 L539.687047,446.016317 C541.139122,444.155487 542.625291,442.18832 544.33855,439.870419 L551.136781,430.593726 L551.570699,430.00654 C563.436279,414.012575 572.147381,405.595804 585.238899,399.819743 C601.276933,392.743662 621.872845,391.701188 650.127475,397.106885 C701.367982,406.910259 745.733878,344.943112 781.460434,208.362654 Z" id="Path-9-Copy" fill="#009BA0" fill-rule="nonzero" blush:i="0.5.0.0.4"/><circle id="Oval" fill="#FF0057" cx="689.5" cy="200.5" r="25.5" blush:i="0.5.0.0.5"/><rect id="Rectangle" fill="#C7D2F2" fill-rule="nonzero" x="93" y="546" width="709" height="2" blush:i="0.5.0.0.6"/></g></g></g><g id="UI Elements" transform="translate(1367.000000, 581.000000) scale(1 1)" blush:width="1101" blush:height="811" blush:component="UI Elements" blush:i="0.6" blush:value="Chat" blush:viewBox="71.56500000000005 52.89130434782612 957.8700000000002 705.2173913043478"><g id="UI Elements/Chat" stroke="none" stroke-width="1" fill="none" fill-rule="evenodd" blush:viewBox="71.56500000000005 52.89130434782612 957.8700000000002 705.2173913043478" blush:i="0.6.0"><g id="Interface--Box-1" transform="translate(74.000000, 54.000000)" blush:i="0.6.0.0"><rect id="Rectangle-Copy-4" fill="#090E2B" x="48" y="36" width="903" height="664" rx="64" blush:i="0.6.0.0.0"/><rect id="Rectangle" fill="#FFF" x="3" y="3" width="903" height="664" rx="64" blush:i="0.6.0.0.1"/><path d="M842,0 L67,0 C29.9969218,0 0,29.9969218 0,67 L0,603 C0,640.003078 29.9969218,670 67,670 L842,670 C879.003078,670 909,640.003078 909,603 L909,67 C909,29.9969218 879.003078,0 842,0 Z M67,6 L842,6 C875.68937,6 903,33.3106303 903,67 L903,603 C903,636.68937 875.68937,664 842,664 L67,664 C33.3106303,664 6,636.68937 6,603 L6,67 C6,33.3106303 33.3106303,6 67,6 Z" id="Rectangle-Copy" fill="#090E2B" fill-rule="nonzero" blush:i="0.6.0.0.2"/><path d="M81.6784,559.808 L800.7568,559.808 C807.384217,559.808 812.7568,554.435417 812.7568,547.808 L812.7568,271.1616 C812.7568,264.534183 807.384217,259.1616 800.7568,259.1616 L81.6784,259.1616 C75.050983,259.1616 69.6784,264.534183 69.6784,271.1616 L69.6784,547.808 C69.6784,554.435417 75.050983,559.808 81.6784,559.808 Z" id="Stroke-1" fill="#C7D2F2" fill-rule="nonzero" blush:i="0.6.0.0.3"/><rect id="Rectangle" fill="#FFF" x="124" y="324" width="625" height="22" rx="8.5" blush:i="0.6.0.0.4"/><rect id="Rectangle-Copy-2" fill="#FFF" x="124" y="397" width="625" height="22" rx="8.5" blush:i="0.6.0.0.5"/><rect id="Rectangle-Copy-3" fill="#FFF" x="124" y="470" width="491" height="22" rx="8.5" blush:i="0.6.0.0.6"/><path d="M81.6784,199.104 L166.664,199.104 C173.291417,199.104 178.664,193.731417 178.664,187.104 L178.664,102.1248 C178.664,95.497383 173.291417,90.1248 166.664,90.1248 L81.6784,90.1248 C75.050983,90.1248 69.6784,95.497383 69.6784,102.1248 L69.6784,187.104 C69.6784,193.731417 75.050983,199.104 81.6784,199.104 Z" id="Stroke-2" fill="#FFB201" blush:i="0.6.0.0.7"/><path d="M313.138385,84.8967885 C329.447729,79.5153053 348.586818,83.2415764 358.898207,95.1494108 C364.641993,101.78247 365.553157,109.836021 361.675317,118.16689 C358.288646,125.442569 351.252764,133.056341 340.595642,141.27597 C336.31135,144.580361 331.408948,148.004801 325.887118,151.550657 L325.349,151.894 L325.543643,152.04445 C341.792399,164.438624 357.091439,166.862182 376.260449,162.057646 L377.968343,161.616032 C383.787581,160.074404 388.340217,158.490339 398.373445,154.551317 L408.291943,150.622394 C426.652824,143.383698 437.167182,140.154312 449.947188,138.648183 C467.698785,136.55615 484.762574,139.44633 502.330447,148.436475 C578.210251,187.267035 616.68251,193.20019 673.005729,172.413466 C676.114478,171.266146 679.564703,172.8562 680.712023,175.964949 C681.859342,179.073698 680.269289,182.523924 677.160539,183.671243 C645.644812,195.30248 619.114696,198.641981 591.124925,194.325425 L589.544806,194.074065 C563.69996,189.837339 536.014264,179.153744 496.863807,159.118977 C481.451903,151.232123 466.781412,148.747308 451.351673,150.565709 L450.342491,150.689479 C439.117599,152.120689 429.287548,155.218498 411.838757,162.123665 L403.055294,165.605084 C391.669618,170.080433 386.906843,171.710504 379.851947,173.526373 C357.027478,179.401193 337.796987,176.483508 318.265861,161.585618 C317.0727,160.675502 315.864585,159.672344 314.654208,158.592274 L314.545,158.494 L314.017166,158.804659 L312.295102,159.804812 C293.187916,170.838945 268.652234,182.944456 238.653973,196.156684 L237.200946,196.795635 C234.166794,198.12777 230.627219,196.748013 229.295083,193.713861 C227.962948,190.679709 229.342705,187.140134 232.376857,185.807998 L235.096589,184.610328 C263.492115,172.068188 286.795242,160.578237 304.975046,150.172539 L305.979,149.594 L305.732259,149.301723 C299.306434,141.630328 293.812924,132.801442 291.510503,125.686128 L291.361761,125.214344 C285.517654,106.168413 295.144491,90.834111 313.138385,84.8967885 Z M349.826646,103.004777 C342.950235,95.0637364 328.907966,92.3297871 316.898536,96.2924571 C304.724978,100.309283 299.047137,109.353346 302.833845,121.694218 C304.636454,127.568918 309.846003,135.708997 315.788395,142.599086 L316.432,143.336 L316.802823,143.104213 C322.845916,139.317522 328.138527,135.690524 332.678924,132.22501 L333.266883,131.773903 C350.827935,118.229407 355.086995,109.079552 349.826646,103.004777 Z" id="Path-8" fill="#FFB201" fill-rule="nonzero" blush:i="0.6.0.0.8"/></g></g></g></g></svg>