<svg height="512" viewBox="0 0 64 64" width="512" xmlns="http://www.w3.org/2000/svg"><path d="m58 35h-2a3.992 3.992 0 0 1 -3 3.87 3.657 3.657 0 0 1 -1 .13 4 4 0 0 1 -4-4v-4a13.836 13.836 0 0 0 -1.66-6.6c-.14-.26-.29-.52-.44-.77a14.06 14.06 0 0 0 -11.68-6.62.01.01 0 0 0 .01-.01h5.77a17.993 17.993 0 0 1 18 18z" fill="#3d9ae2"/><path d="m29.78 17.01a14.06 14.06 0 0 0 -11.68 6.62c-.15.25-.3.51-.44.77a13.836 13.836 0 0 0 -1.66 6.6v4a4 4 0 0 1 -4 4 3.657 3.657 0 0 1 -1-.13 3.992 3.992 0 0 1 -3-3.87h-2a18.015 18.015 0 0 1 18-18h5.77a.01.01 0 0 0 .01.01z" fill="#ff6243"/><path d="m53 38.87v20.13a2.006 2.006 0 0 1 -2 2h-38a2.006 2.006 0 0 1 -2-2v-20.13a3.657 3.657 0 0 0 1 .13 4 4 0 0 0 4-4 4 4 0 0 0 8 0 4 4 0 0 0 8 0 4 4 0 0 0 8 0 4 4 0 0 0 8 0 4 4 0 0 0 4 4 3.657 3.657 0 0 0 1-.13z" fill="#00ccb3"/><path d="m27 47v14h-10v-14a2.006 2.006 0 0 1 2-2h6a2.006 2.006 0 0 1 2 2z" fill="#96c8ef"/><rect fill="#96c8ef" height="8" rx="1" width="14" x="33" y="45"/><path d="m40 25v10a4 4 0 0 1 -8 0v-18a8.076 8.076 0 0 1 1.98.25 8 8 0 0 1 5.96 6.75 8.262 8.262 0 0 1 .06 1z" fill="#3d9ae2"/><path d="m32 17a7.992 7.992 0 0 0 -7.94 7 8.262 8.262 0 0 0 -.06 1v10a4 4 0 0 1 -8 0v-4a13.836 13.836 0 0 1 1.66-6.6c.14-.26.29-.52.44-.77a14.06 14.06 0 0 1 11.68-6.62 1.62 1.62 0 0 1 .22-.01z" fill="#3d9ae2"/><path d="m48 31v4a4 4 0 0 1 -8 0v-10a8.262 8.262 0 0 0 -.06-1 8 8 0 0 0 -5.96-6.75 8.076 8.076 0 0 0 -1.98-.25h2a1.62 1.62 0 0 1 .22.01 14.06 14.06 0 0 1 11.68 6.62c.15.25.3.51.44.77a13.836 13.836 0 0 1 1.66 6.6z" fill="#ff6243"/><path d="m32 17v18a4 4 0 0 1 -8 0v-10a8.262 8.262 0 0 1 .06-1 8.009 8.009 0 0 1 7.94-7z" fill="#ff6243"/><path d="m53 38.87v2a3.657 3.657 0 0 1 -1 .13 4 4 0 0 1 -4-4 4 4 0 0 1 -8 0 4 4 0 0 1 -8 0 4 4 0 0 1 -8 0 4 4 0 0 1 -8 0 4 4 0 0 1 -4 4 3.657 3.657 0 0 1 -1-.13v-2a3.657 3.657 0 0 0 1 .13 4 4 0 0 0 4-4 4 4 0 0 0 8 0 4 4 0 0 0 8 0 4 4 0 0 0 8 0 4 4 0 0 0 8 0 4 4 0 0 0 4 4 3.657 3.657 0 0 0 1-.13z" fill="#00b39d"/><g fill="#78b9eb"><path d="m27 48v4l-9 9h-1v-3z"/><path d="m27 54v3.5l-3.5 3.5h-3.5z"/><path d="m47 46-7 7h-4l8-8h2a1 1 0 0 1 1 1z"/><path d="m47 48v3.5l-1.5 1.5h-3.5z"/></g><circle cx="32" cy="18" fill="#e6e7e8" r="12"/><path d="m16 20v8a1 1 0 0 1 -1 1h-2a1 1 0 0 1 -1-1v-8a1 1 0 0 1 1-1h2a1 1 0 0 1 1 1z" fill="#1e81ce"/><path d="m52 20v8a1 1 0 0 1 -1 1h-2a1 1 0 0 1 -1-1v-8a1 1 0 0 1 1-1h2a1 1 0 0 1 1 1z" fill="#1e81ce"/><circle cx="32" cy="18" fill="#d1d3d4" r="4"/><path d="m49 10h2v9h-2z" fill="#e0e0e2"/><path d="m16 2v7a1 1 0 0 1 -1 1v-8h-2v8a1 1 0 0 1 -1-1v-7h-2v7a3 3 0 0 0 3 3v7h2v-7a3 3 0 0 0 3-3v-7z" fill="#d8d7da"/><path d="m28 61h-2v-14a1 1 0 0 0 -1-1h-6a1 1 0 0 0 -1 1v14h-2v-14a3 3 0 0 1 3-3h6a3 3 0 0 1 3 3z" fill="#009986"/><path d="m46 54h-12a2 2 0 0 1 -2-2v-6a2 2 0 0 1 2-2h12a2 2 0 0 1 2 2v6a2 2 0 0 1 -2 2zm-12-8v6h12v-6z" fill="#009986"/><path d="m4 60h56v2h-56z" fill="#009986"/><path d="m23 51h2v4h-2z" fill="#009986"/><ellipse cx="50" cy="7" fill="#e6e7e8" rx="3" ry="4"/></svg>