<svg width="603" height="408" viewBox="0 0 603 408" fill="none" xmlns="http://www.w3.org/2000/svg">
<path d="M494.799 38.3172C530.755 23.9675 555.704 54.3551 556.071 85.3055C556.437 116.537 612.577 174.058 601.57 201.07C590.563 228.081 544.577 241.819 601.57 319.444C606.34 357.429 530.021 354.574 505.072 349.228C480.123 343.882 462.571 402.997 416.342 388.648C369.746 374.017 153.552 447.543 170.098 376.583C219.24 311.933 91.1595 320.543 65.4769 296.908C39.7943 273.555 124.603 209.67 106.992 172.248C-114.408 7.08542 73.9714 89.526 89.3809 52.3855C104.79 15.2451 151.019 -14.0171 202.017 7.08542C253.383 28.188 309.151 99.6552 360.516 105.845C411.881 111.754 458.843 52.9483 494.799 38.3172Z" fill="#F45FDC"/>
</svg>
