<svg xmlns="http://www.w3.org/2000/svg" width="572.049" height="538.386" viewBox="0 0 572.049 538.386">
  <defs>
    <style>
      .cls-1 {
        mix-blend-mode: hard-light;
        isolation: isolate;
      }

      .cls-2 {
        fill: rgba(29,47,141,0.64);
      }

      .cls-3 {
        fill: #1a2b63;
      }

      .cls-4 {
        fill: #ffaf10;
      }

      .cls-5 {
        fill: #ef9614;
      }

      .cls-6 {
        fill: #ffd00d;
      }

      .cls-7 {
        fill: #ef8318;
      }

      .cls-8 {
        fill: #db722c;
      }

      .cls-9 {
        fill: #a05f33;
      }

      .cls-10 {
        fill: #87502a;
      }

      .cls-11 {
        fill: #293d7c;
      }

      .cls-12 {
        fill: #bf7e52;
      }

      .cls-13 {
        fill: #aa6b3f;
      }

      .cls-14 {
        fill: #c95e23;
      }

      .cls-15 {
        fill: #fff;
      }
    </style>
  </defs>
  <g id="top-selling" transform="translate(-130.951 -125)">
    <path id="Path_9" data-name="Path 9" class="cls-1" d="M0,0H544V512S257.8,525.2,121.8,397.2,0,0,0,0Z" transform="translate(159 125)"/>
    <path id="Path_10" data-name="Path 10" class="cls-2" d="M.022,0h571.6V537.98S270.9,551.85,128,417.355.022,0,.022,0Z" transform="translate(131.374 125)"/>
    <g id="trophy" transform="translate(297 199.685)">
      <circle id="Ellipse_1" data-name="Ellipse 1" class="cls-3" cx="140.5" cy="140.5" r="140.5" transform="translate(11 12.315)"/>
      <path id="Path_37" data-name="Path 37" class="cls-4" d="M258.551,338.894V308.179a15.49,15.49,0,0,1-3.691.446H242.191a15.489,15.489,0,0,1-3.691-.446v30.715Z" transform="translate(-97.17 -131.629)"/>
      <path id="Path_38" data-name="Path 38" class="cls-5" d="M247.38,338.894V308.625h-5.189a15.489,15.489,0,0,1-3.691-.446v30.715Z" transform="translate(-97.17 -131.629)"/>
      <path id="Path_39" data-name="Path 39" class="cls-6" d="M239.733,282.03a61.4,61.4,0,0,1-21.819-3.988v2.824A15.484,15.484,0,0,0,233.4,296.35h12.669a15.484,15.484,0,0,0,15.484-15.484v-2.824A61.406,61.406,0,0,1,239.733,282.03Z" transform="translate(-88.377 -118.757)"/>
      <path id="Path_40" data-name="Path 40" class="cls-4" d="M235.662,281.892a61.272,61.272,0,0,1-17.747-3.85v2.824A15.484,15.484,0,0,0,233.4,296.35h12.669a15.554,15.554,0,0,0,2.521-.207A15.486,15.486,0,0,1,235.662,281.892Z" transform="translate(-88.377 -118.757)"/>
      <path id="Path_41" data-name="Path 41" class="cls-7" d="M261.685,372.6v-9.739A2.873,2.873,0,0,0,258.82,360H219.864A2.873,2.873,0,0,0,217,362.864V372.6Z" transform="translate(-87.987 -153.763)"/>
      <path id="Path_42" data-name="Path 42" class="cls-8" d="M234.186,372.6v-9.739A2.873,2.873,0,0,1,237.051,360H219.864A2.873,2.873,0,0,0,217,362.864V372.6Z" transform="translate(-87.987 -153.763)"/>
      <path id="Path_43" data-name="Path 43" class="cls-9" d="M269.774,429.841V382.864A2.873,2.873,0,0,0,266.91,380H164.364a2.873,2.873,0,0,0-2.864,2.864v46.976Z" transform="translate(-64.281 -162.305)"/>
      <path id="Path_44" data-name="Path 44" class="cls-10" d="M170.38,429.841V382.864A2.873,2.873,0,0,1,173.244,380h-8.88a2.873,2.873,0,0,0-2.864,2.864v46.976Z" transform="translate(-64.281 -162.305)"/>
      <path id="Path_45" data-name="Path 45" class="cls-11" d="M265.769,424.925a2.873,2.873,0,0,1-2.864,2.864H191.842a2.873,2.873,0,0,1-2.864-2.864V400.864A2.873,2.873,0,0,1,191.842,398H262.9a2.873,2.873,0,0,1,2.864,2.864Z" transform="translate(-76.018 -169.993)"/>
      <path id="Path_46" data-name="Path 46" class="cls-3" d="M200.422,424.925V400.864A2.873,2.873,0,0,1,203.287,398H191.842a2.873,2.873,0,0,0-2.864,2.864v24.061a2.873,2.873,0,0,0,2.864,2.864h11.444A2.873,2.873,0,0,1,200.422,424.925Z" transform="translate(-76.018 -169.993)"/>
      <path id="Path_47" data-name="Path 47" class="cls-12" d="M270.7,466H138.364a2.873,2.873,0,0,0-2.864,2.864v5.358a140.483,140.483,0,0,0,138.064,0v-5.357A2.873,2.873,0,0,0,270.7,466Z" transform="translate(-53.176 -199.038)"/>
      <path id="Path_48" data-name="Path 48" class="cls-13" d="M152.973,468.864A2.873,2.873,0,0,1,155.837,466H138.364a2.873,2.873,0,0,0-2.864,2.864v5.358a139.851,139.851,0,0,0,17.473,8.347Z" transform="translate(-53.176 -199.038)"/>
      <path id="Path_49" data-name="Path 49" class="cls-4" d="M397.819,25.591h-22.2v4.817a2.294,2.294,0,0,1-2.292,2.292h-9.614a.573.573,0,0,0-.573.573v6.64h30.03a91.653,91.653,0,0,1-30.03,63.436v9.144a61.907,61.907,0,0,1-.778,9.779,106.121,106.121,0,0,0,45.241-86.9A9.794,9.794,0,0,0,397.819,25.591Z" transform="translate(-150.073 -10.93)"/>
      <path id="Path_50" data-name="Path 50" class="cls-6" d="M115.132,112.494v-9.144A91.653,91.653,0,0,1,85.1,39.913h30.03v-6.64a.573.573,0,0,0-.573-.573h-9.614a2.294,2.294,0,0,1-2.292-2.292V25.591h-22.2a9.794,9.794,0,0,0-9.783,9.783,106.123,106.123,0,0,0,45.241,86.9A61.918,61.918,0,0,1,115.132,112.494Z" transform="translate(-25.485 -10.93)"/>
      <path id="Path_51" data-name="Path 51" class="cls-7" d="M147.282,38v79.794a62.283,62.283,0,0,0,124.565,0V38Z" transform="translate(-58.209 -16.231)"/>
      <g id="Group_7" data-name="Group 7" transform="translate(89.073 21.198)">
        <path id="Path_52" data-name="Path 52" class="cls-8" d="M159.724,117.368V37H147.282v80.365a62.283,62.283,0,0,0,62.282,62.282c2.086,0,4.144-.111,6.177-.312A62.29,62.29,0,0,1,159.724,117.368Z" transform="translate(-147.282 -37.003)"/>
        <circle id="Ellipse_2" data-name="Ellipse 2" class="cls-8" cx="42.393" cy="42.393" r="42.393" transform="translate(19.889 25.491)"/>
      </g>
      <path id="Path_53" data-name="Path 53" class="cls-14" d="M192.885,123.892a42.391,42.391,0,0,1,36.951-42.033,42.393,42.393,0,1,0,0,84.067A42.391,42.391,0,0,1,192.885,123.892Z" transform="translate(-73.037 -34.81)"/>
      <path id="Path_54" data-name="Path 54" class="cls-6" d="M250.325,162.585a4.557,4.557,0,0,1-2.129-.564l-11.542-6.067a3.056,3.056,0,0,0-2.168,0l-11.541,6.067a4.568,4.568,0,0,1-2.129.564,3.439,3.439,0,0,1-2.678-1.221,4.109,4.109,0,0,1-.788-3.41l2.2-12.851a3.043,3.043,0,0,0-.67-2.062l-9.337-9.1a3.695,3.695,0,0,1,2.138-6.579l12.9-1.874a3.044,3.044,0,0,0,1.754-1.275l5.77-11.692a3.7,3.7,0,0,1,6.918,0l5.771,11.692a3.04,3.04,0,0,0,1.754,1.275l12.9,1.874a3.7,3.7,0,0,1,2.139,6.578l-9.337,9.1a3.04,3.04,0,0,0-.67,2.062l2.2,12.851a4.111,4.111,0,0,1-.788,3.41A3.44,3.44,0,0,1,250.325,162.585Z" transform="translate(-84.214 -47.036)"/>
      <path id="Path_55" data-name="Path 55" class="cls-4" d="M226.8,169l2.388-13.925a3.3,3.3,0,0,0-.726-2.235l-10.118-9.862a4.25,4.25,0,0,1-1.372-4.112l-5.294.769a3.695,3.695,0,0,0-2.138,6.579l9.337,9.1a3.043,3.043,0,0,1,.67,2.062l-2.2,12.851a4.113,4.113,0,0,0,.788,3.41,3.44,3.44,0,0,0,2.678,1.221,4.566,4.566,0,0,0,2.129-.564l4.28-2.25A4.713,4.713,0,0,1,226.8,169Z" transform="translate(-84.213 -59.314)"/>
      <path id="Path_56" data-name="Path 56" class="cls-6" d="M275.022,19.478a2.873,2.873,0,0,1-2.864,2.864H128.364a2.873,2.873,0,0,1-2.864-2.864V2.864A2.873,2.873,0,0,1,128.364,0H272.157a2.873,2.873,0,0,1,2.864,2.864Z" transform="translate(-48.905)"/>
      <path id="Path_57" data-name="Path 57" class="cls-4" d="M142.973,19.478V2.864A2.873,2.873,0,0,1,145.837,0H128.364A2.873,2.873,0,0,0,125.5,2.864V19.478a2.873,2.873,0,0,0,2.864,2.864h17.473A2.873,2.873,0,0,1,142.973,19.478Z" transform="translate(-48.905)"/>
      <path id="Path_58" data-name="Path 58" class="cls-6" d="M113.332,303.665A1.718,1.718,0,0,1,111.7,302.5c-3.3-9.77-5.765-12.238-15.535-15.535a1.719,1.719,0,0,1,0-3.257c9.769-3.3,12.237-5.765,15.535-15.535a1.718,1.718,0,0,1,3.256,0c3.3,9.769,5.765,12.238,15.535,15.535a1.719,1.719,0,0,1,0,3.257c-9.769,3.3-12.237,5.765-15.535,15.535A1.717,1.717,0,0,1,113.332,303.665Z" transform="translate(-35.878 -114.041)"/>
      <g id="Group_8" data-name="Group 8" transform="translate(102.661 18.332)">
        <path id="Path_59" data-name="Path 59" class="cls-15" d="M364.608,276.217a1.371,1.371,0,0,1-1.3-.931c-2.627-7.785-4.595-9.752-12.379-12.379a1.37,1.37,0,0,1,0-2.6c7.785-2.627,9.752-4.595,12.379-12.379a1.37,1.37,0,0,1,2.6,0c2.627,7.785,4.595,9.752,12.379,12.379a1.37,1.37,0,0,1,0,2.6c-7.785,2.628-9.752,4.594-12.379,12.379A1.372,1.372,0,0,1,364.608,276.217Z" transform="translate(-247.454 -123.831)"/>
        <path id="Path_60" data-name="Path 60" class="cls-15" d="M257.8,414.729H226.864a2.864,2.864,0,1,1,0-5.729H257.8a2.864,2.864,0,0,1,0,5.729Z" transform="translate(-193.637 -193.024)"/>
        <path id="Path_61" data-name="Path 61" class="cls-15" d="M256.051,432.729H238.864a2.864,2.864,0,1,1,0-5.729h17.186a2.864,2.864,0,1,1,0,5.729Z" transform="translate(-198.763 -200.712)"/>
        <path id="Path_62" data-name="Path 62" class="cls-15" d="M184.749,59.5a1.29,1.29,0,0,1-1.221-.877c-2.473-7.327-4.324-9.178-11.651-11.651a1.289,1.289,0,0,1,0-2.443c7.327-2.473,9.178-4.324,11.651-11.651a1.289,1.289,0,0,1,2.443,0c2.473,7.327,4.324,9.178,11.651,11.651a1.289,1.289,0,0,1,0,2.443c-7.327,2.473-9.178,4.324-11.651,11.651A1.29,1.29,0,0,1,184.749,59.5Z" transform="translate(-171 -32)"/>
      </g>
    </g>
  </g>
</svg>
